<svg xmlns="http://www.w3.org/2000/svg" viewBox="0 0 728.96 716.98">
  <g>
    <path d="M212.86,116c-.2.27-3.74.81-7.89,1.09s-7.62.75-7.89,1.09-2.31.61-4.76.61-4.36.27-4.36.68-.75.68-1.63.68-1.91.27-2.11.68-1.77.68-3.4.68-3.2.27-3.4.68-1.64.68-3.07.68-2.85.27-3.06.68-1.43.68-2.72.68-2.52.27-2.72.68-1.56.68-3,.68a6.53,6.53,0,0,0-3.2.61c-.75.82-5.78,2.18-9.59,2.59-1.64.2-2.93.61-2.93,1s-.54.61-1.29.61a1.89,1.89,0,0,0-1.64,1.36c-.2,1-1,1.37-2.1,1.37-1.84,0-3.54.74-6.47,2.85a5.83,5.83,0,0,1-2.52,1.23c-1.36,0-6.39,2.24-6.39,2.85,0,.35-.61.55-1.29.55s-1.43.2-1.57.54-2.38,1.57-13.13,6.67a22,22,0,0,0-4.29,2.45,2,2,0,0,1-1.56.54c-.75,0-1.29.28-1.29.68s-.48.69-1,.69a2.42,2.42,0,0,0-1.7,1.36,2.51,2.51,0,0,1-1.71,1.36,7.2,7.2,0,0,0-2.92,1.7,7.84,7.84,0,0,1-2.65,1.7,4.29,4.29,0,0,0-1.91,1.36,3.88,3.88,0,0,1-2,1.36c-.48,0-1.5.82-2.45,1.77a15.7,15.7,0,0,1-4,2.86,22.19,22.19,0,0,0-5.23,4c-1.64,1.63-3.27,2.93-3.68,2.93s-2.72,2-5.1,4.42-4.7,4.42-5.1,4.42c-1,0-4.09,3.13-4.09,4.08,0,.48-3.33,4.09-7.48,8.17s-7.48,7.82-7.48,8.43A1.08,1.08,0,0,1,44,203.18h0a3.46,3.46,0,0,0-3,3c0,.61-.27,1.08-.68,1.08s-.68.48-.68,1a1.05,1.05,0,0,1-1,1c-.61,0-1,.61-1,1.56s-1,2.59-2.45,3.95a18.87,18.87,0,0,0-3.67,5.1,15.94,15.94,0,0,1-2.31,3.61c-.62.54-1,1.15-.75,1.42s-.28,1-1,1.7A3.88,3.88,0,0,0,26,228.83c0,.48-.28.89-.68.89s-.68.88-.68,1.9a3.65,3.65,0,0,1-1.37,2.86A3.51,3.51,0,0,0,22,236.93a3.42,3.42,0,0,1-1,2.31c-1.36,1.09-3.19,5-3,6.26a7.26,7.26,0,0,1-2.18,5.38,3.51,3.51,0,0,0-1.29,2.24c0,.61-.27,1.09-.68,1.09s-.68.61-.68,1.29-.27,1.57-.68,1.77a2.11,2.11,0,0,0-.68,1.57,6.24,6.24,0,0,1-1.36,2.85A6.75,6.75,0,0,0,9,265.23a2.92,2.92,0,0,1-.75,2.25,1.21,1.21,0,0,0-.41,1.22c.14.41-1,3.06-2.38,5.78s-2.59,6-2.59,7-.27,2-.68,2-.68.89-.68,2.05-.27,2-.68,2-.68,2.17-.68,5.1c0,3.74-.34,5.65-1.15,6.94a7.55,7.55,0,0,0-1.23,3.2c-.14,2.38-1.16,6.8-1.7,7.55-.34.34-.68,3.4-.82,6.67s-.4,6.19-.68,6.39-.54,1.77-.54,3.61-.27,3.54-.68,3.74-.68,7-.68,18c0,13.47-.21,17.62-.82,17.89s-.68.62-.07,1.77a9.18,9.18,0,0,1,.89,4,6.31,6.31,0,0,0,.61,3.19c.34.34.75,3.68.82,7.28s.41,6.67.75,6.67.54,2,.54,4.42.27,4.43.61,4.43.82,1.29,1.09,2.85.68,3.41.82,3.95a38.09,38.09,0,0,1,.68,5.1,12.91,12.91,0,0,0,1,4.76,4.23,4.23,0,0,1,.61,2.45,3.47,3.47,0,0,0,.68,2.32c.34.2.68,1.49.68,2.79s.21,2.31.55,2.31c.68,0,2.17,3.4,2.17,5.17s2.66,7.14,3.88,8,1.16,2.65.07,3.74c-.61.62-.48,1.16.68,2.38a5.47,5.47,0,0,1,1.5,3,4.19,4.19,0,0,0,1.36,2.58,4.51,4.51,0,0,1,1.36,2.86A11.7,11.7,0,0,0,15,457.16c2.79,4.29,3.6,6,3.26,6.6s1.43,4.35,2.72,5.44A3,3,0,0,1,22,471a2.74,2.74,0,0,0,1.36,1.77c.75.48,1.37,1.23,1.37,1.57,0,1.15,1.63,4.42,2.24,4.42.27,0,.48.54.48,1.29a3.21,3.21,0,0,0,1,2.11,3.13,3.13,0,0,1,1,2A5.58,5.58,0,0,0,31.21,487a15.81,15.81,0,0,1,3,4.42,14.38,14.38,0,0,0,2.38,3.68,3,3,0,0,1,1,1.77.93.93,0,0,0,.91.95h0c.82,0,2.79,2.52,4.84,6.26.34.68.88,1.22,1.15,1.22s.55.55.55,1.3a1.87,1.87,0,0,0,1.36,1.63A1.83,1.83,0,0,1,47.81,510c0,.81.34,1.43.75,1.43A3.74,3.74,0,0,1,51.21,514c0,.41,1.77,2.45,3.95,4.56a28,28,0,0,1,3.94,4.28c.55,2.32,1.43,3.68,2.79,4.22a3.44,3.44,0,0,1,2,2c.21.74.75,1.36,1.23,1.36a4.17,4.17,0,0,1,2,1.36A4.26,4.26,0,0,0,69,533.16a12,12,0,0,1,3.27,2.72,12,12,0,0,0,3.27,2.72c.34,0,3.26,2.59,6.46,5.72s6.53,5.91,7.42,6.19a6,6,0,0,1,2.58,1.7c1.36,1.56,10,8.16,10.75,8.16a5,5,0,0,1,2,1.57,13.19,13.19,0,0,0,3.88,2.51c1.29.55,2.38,1.16,2.38,1.5s.41.54.89.54a4.4,4.4,0,0,1,2.24,1.3c2,1.83,6.87,4.83,8,4.83a7.38,7.38,0,0,1,2.86,2c1.09,1.09,2.52,2,3.2,2a11.07,11.07,0,0,1,3.6,1.36,10.46,10.46,0,0,0,3.74,1.36c.75,0,1.36.27,1.36.55,0,.61,4.77,2.85,6,2.85a5.73,5.73,0,0,1,2.18.68c.75.34,2,1,2.72,1.36a7.91,7.91,0,0,0,2.65.68,2.14,2.14,0,0,1,1.77.69,2.68,2.68,0,0,0,1.91.68,6.41,6.41,0,0,1,3.2,1.36,7.21,7.21,0,0,0,3.87,1.36,3.9,3.9,0,0,1,2.52.61c.2.34,2,.82,3.95,1.09a21.62,21.62,0,0,1,4.76,1.09c.68.34,1.84.88,2.58,1.29a8.85,8.85,0,0,0,3,.68,2.77,2.77,0,0,1,2,.61c.41.61,3,1.09,10.14,1.84,2.11.27,4.08.68,4.28,1a2.79,2.79,0,0,0,2,.61c1,0,1.64.27,1.64.68s1.43.68,3.13.68a13.14,13.14,0,0,1,4.56.75c1.08.61,1.49.61,1.7,0,.27-.88,2.17-1,2.17-.2,0,.34,2.93.81,6.47,1s7,.81,7.75,1.29c1,.61,1.57.61,2.32-.07s1.36-.68,2.45.07,1.83.68,3.87-.07c1.77-.61,2.66-.68,3.2-.13,1,1,12.52,1,13.06.06.21-.4,1.43-.68,2.73-.68s2.51.28,2.72.68c.54.82,6.94.89,7.41.07.21-.27,4.42-.75,9.32-.88s9.12-.68,9.39-1,2.18-.68,4.36-.75a15.5,15.5,0,0,0,5.17-.82,8.72,8.72,0,0,1,3.06-.68c.95,0,1.77-.34,1.77-.68s1-.68,2.31-.68,2.59-.34,2.79-.68,1.77-.68,3.47-.68,3-.34,3-.68.75-.68,1.64-.68a3.1,3.1,0,0,0,2.11-.68,2.79,2.79,0,0,1,2-.68,3.68,3.68,0,0,0,2.45-1,2.11,2.11,0,0,1,2.11-.68c1.22.41,5.17-1.36,6.12-2.66a1,1,0,0,1,1.23-.13c.4.27,1.7,0,2.92-.55a10.25,10.25,0,0,1,3.95-1.08,4.73,4.73,0,0,0,3.06-1.37,4.73,4.73,0,0,1,3.6-1.36,5,5,0,0,0,3.95-1.7,4.92,4.92,0,0,1,3.54-1.7,11.39,11.39,0,0,0,6.94-3.06,3.48,3.48,0,0,1,2.38-1c2,0,5.58-1.84,6.05-3.06a1.65,1.65,0,0,1,1.37-1c1.22,0,6.53-2.79,6.53-3.47s4-2.66,5.58-2.66a1.13,1.13,0,0,0,1.22-1v-.17c0-.82,1.29-2,3.74-3.2,2-1.09,3.74-2.24,3.74-2.51s.62-.55,1.37-.55a1.22,1.22,0,0,0,1.36-1.07,1.41,1.41,0,0,0,0-.29,1.22,1.22,0,0,1,1.07-1.36h.29c.75,0,1.36-.34,1.36-.75s.27-.54.88,0c.95.75,2.52-.2,2.52-1.56,0-1,5.51-6.54,6.46-6.54,1.23,0,10.55-8.16,10.55-9.18a1,1,0,0,1,.88-1,4,4,0,0,0,2.18-1.36,3.85,3.85,0,0,1,2.18-1.36.9.9,0,0,0,.88-.89,7.37,7.37,0,0,1,2-2.85,7.45,7.45,0,0,0,2-2.86.91.91,0,0,1,.89-.89c1.09,0,5.24-3.94,5.24-5,0-.41,2.58-3.33,5.78-6.53s5.78-6.13,5.78-6.53a4.14,4.14,0,0,1,1.36-2,4,4,0,0,0,1.36-2.45,2.26,2.26,0,0,1,.89-1.76,9.26,9.26,0,0,0,1.84-2.59,14.1,14.1,0,0,1,2.24-3.33,5.43,5.43,0,0,0,1.16-2.05c0-.4.61-1.15,1.36-1.63a3.25,3.25,0,0,0,1.36-2.45,1.84,1.84,0,0,1,1.29-2,2.37,2.37,0,0,0,1.57-2.25,3.09,3.09,0,0,1,1.56-2.58c1.5-.61,3.06-3.33,3.06-5.17,0-.61,1.5-4.08,3.34-7.69s3.19-6.6,2.92-6.6-.07-.34.41-.82a3.38,3.38,0,0,0,.82-2.1,6.33,6.33,0,0,1,1.36-3,6.19,6.19,0,0,0,1.36-2.72,6.15,6.15,0,0,1,2-2.93,5.14,5.14,0,0,0,2-4.62c0-1.57.34-3,.68-3.2s.68-1.63.68-3.06.34-2.86.68-3.06a1.35,1.35,0,0,0,.61-1.23,7.9,7.9,0,0,1,2.18-5.64,4.9,4.9,0,0,0,1.29-3.47c0-1.23.34-2.25.68-2.25s.68-1.22.68-2.72.34-2.72.69-2.72.68-.75.68-1.64a3.05,3.05,0,0,1,.68-2.1,4.27,4.27,0,0,0,.68-2.73,4.26,4.26,0,0,1,.68-2.72c.34-.2.68-1.56.68-3a6.79,6.79,0,0,1,.47-3.06,2.89,2.89,0,0,0-.13-3.81c-.82-.68-.89-1.09-.21-1.84a7,7,0,0,0,.68-3.61c-.06-1.42.14-2.78.55-3.06s.68-1.77.68-3.47.34-3,.68-3,.68-.75.68-1.63a3.06,3.06,0,0,1,.68-2.11c.34-.21.68-4.29.68-9.94,0-5.85.27-9.45.68-9.45s.68-5.31.68-14.63-.27-14.63-.68-14.63S486,333,486,331.23a9.33,9.33,0,0,0-.61-4,15.6,15.6,0,0,1-1-4.69c-.75-8.17-1.3-11.23-1.91-11.23-.41,0-.34-.48.14-1a1.33,1.33,0,0,0,.13-1.91,2.89,2.89,0,0,1-.4-2.31c.2-.75.06-1.63-.34-1.84s-.75-2.51-.75-5.17-.28-4.9-.68-5.1-.68-1.16-.68-2-.28-1.84-.68-2-.68-1.5-.68-2.79-.28-2.31-.68-2.31-.69-.62-.69-1.36-.27-1.37-.68-1.37-.68-1-.68-2.31-.27-2.58-.68-2.79-.68-1.15-.68-2a9.93,9.93,0,0,0-1.43-4.15c-.74-1.36-1.22-2.86-1-3.33s-.27-1.43-1-2.11a4.33,4.33,0,0,1-1.29-2.72c0-.89-.27-1.77-.68-2a2.69,2.69,0,0,1-.68-2,4.37,4.37,0,0,0-1.36-2.79,4.32,4.32,0,0,1-1.36-2.72,11.68,11.68,0,0,0-3.06-6.46,3.66,3.66,0,0,1-1-2.45c0-.89-.41-1.64-.82-1.64-.95,0-2.59-3.06-2.59-4.83a5,5,0,0,0-2-2.85,5,5,0,0,1-2-3.47c0-1-.27-1.77-.54-1.77s-1.29-1.36-2.11-3.07-2-3.06-2.52-3.06a.93.93,0,0,1-.95-.91v0a3,3,0,0,0-1-1.77,14.29,14.29,0,0,1-2.38-3.67,16.84,16.84,0,0,0-3.34-4.76,8.3,8.3,0,0,1-2.11-2.79c0-.41-1.49-2.25-3.4-4.09s-3.4-3.74-3.4-4.21a1,1,0,0,0-1-.89,1,1,0,0,1-1-.88,4,4,0,0,0-1.36-2.18,3.9,3.9,0,0,1-1.36-2.18.85.85,0,0,0-.8-.88h0c-1.09,0-4.62-3.47-4.62-4.56a.93.93,0,0,0-1-.89h0a1.7,1.7,0,0,1-1.36-1,1.66,1.66,0,0,0-1.43-1,1.14,1.14,0,0,1-1-1.22,3.22,3.22,0,0,0-1.36-2.18c-.75-.54-1.36-1.22-1.36-1.56,0-.75-3.54-3.81-4.42-3.88-.41,0-2-1.23-3.4-2.72s-3-2.72-3.4-2.72-1.77-1.09-3.07-2.38-2.65-2.39-3.06-2.39a4.16,4.16,0,0,1-2-1.36,3.88,3.88,0,0,0-2-1.36,3.88,3.88,0,0,1-2-1.36,4.12,4.12,0,0,0-2-1.36,7.67,7.67,0,0,1-2.52-1.77,19.11,19.11,0,0,0-6.19-4.08c-.68-.2-1.23-.68-1.23-1s-.47-.61-1.09-.61a3.72,3.72,0,0,1-2.24-1.23,12.88,12.88,0,0,0-3.54-2.38,10.56,10.56,0,0,1-3.33-2.18,4.21,4.21,0,0,0-2.79-1c-1.09,0-2-.27-2-.61,0-.68-6.59-4.15-7.82-4.15a4.68,4.68,0,0,1-2.11-1.22c-2-1.77-4.15-2.86-5.65-2.86a3.26,3.26,0,0,1-2.1-1,4.88,4.88,0,0,0-3.13-1c-1.57,0-2.59-.41-3.13-1.36a3,3,0,0,0-2-1.36,10.61,10.61,0,0,1-3.61-1.36,11,11,0,0,0-4.08-1.37,6.47,6.47,0,0,1-2.93-.68,33.4,33.4,0,0,0-10.2-3.87,8,8,0,0,1-3.27-1,3,3,0,0,0-2-.61,2.86,2.86,0,0,1-2-.68,4.51,4.51,0,0,0-2.79-.68c-1.3,0-2.32-.34-2.32-.68s-1-.68-2-.68a8.66,8.66,0,0,1-3.26-.61,21.66,21.66,0,0,0-9.19-2.11c-1.7,0-3.33-.34-3.54-.68a4.22,4.22,0,0,0-2.72-.68c-1.29,0-2.45-.27-2.65-.61s-4.36-.82-9.25-1.09-9-.75-9.19-1c-.54-.89-43.88-.89-44.9,0-.61.54-1,.54-1.36,0C216.33,115.28,213.34,115.21,212.86,116Zm29.87,3.47c.27.41,3.88.68,8.57.68,5,0,8.1.27,8.1.68s2.72.68,6.73.68c3.81,0,7,.27,7.22.68s1.83.68,3.6.68,5.31.2,7.83.48c3.81.34,4.76.68,5.17,1.77s.68,1.15,1,.61c.61-1,3.6-1.09,3.94-.14.14.41,1.77.75,3.61.82,3.61.07,5.37.75,7.21,2.92.95,1.09,1.36,1.23,2,.48,1-1,4.43-1.09,5-.14a2.65,2.65,0,0,0,2,.68,3,3,0,0,1,3.14,2.75,3.38,3.38,0,0,1,0,.45c0,1.7,1.77,2.11,4,.89,1-.48,1.64-.28,2.66.68s2.38,1.36,4.49,1.36c1.7,0,3.26.27,3.47.68a2.14,2.14,0,0,0,1.56.68,6.23,6.23,0,0,1,2.86,1.36,6.23,6.23,0,0,0,2.86,1.36,1.57,1.57,0,0,1,1.36.68c.13.41,1.5.82,3.06.88,2.18.07,2.93.41,3.2,1.36s.75,1.23,1.77,1a1.42,1.42,0,0,1,2,1c.41,1,.68,1.22,1,.61.61-.95,2.45.2,2.45,1.63a4,4,0,0,0,1.29,2c1.09,1,1.5,1,2.72.27s1.7-.68,3.27.27c1.09.68,1.84,1.5,1.77,1.91s.47.61,1.29.47a2.13,2.13,0,0,1,2.25,1.36,2.45,2.45,0,0,0,2.17,1.57,2.59,2.59,0,0,1,1.91.68c.34.54.75.54,1.36,0,1.09-.89,1.63-.21,1.84,2.24.06,1.09.47,1.57,1,1.36a1,1,0,0,1,1.28.71v0a6.17,6.17,0,0,0,2.72,2.11c1.23.55,2.31,1.43,2.31,2s.62,1.09,1.57,1.09c2.31,0,5.24,1.64,8,4.42,1.22,1.3,2.86,2.39,3.47,2.39a3.51,3.51,0,0,1,2.24,1.7,3.59,3.59,0,0,0,2.25,1.7c1.36,0,2.86,2,2.93,3.74,0,.88.74,1.7,2.24,2.31,2.45,1.09,8,6.06,8,7.28,0,.41.61,1,1.36,1.16a3.9,3.9,0,0,1,2,2.11c.34,1,1.09,1.77,1.7,1.77a1,1,0,0,1,1,1,1.06,1.06,0,0,0,1,1,1.83,1.83,0,0,1,1.5,1.16,13.64,13.64,0,0,0,2.52,3.47,10.77,10.77,0,0,1,2.11,2.72c0,.27.88,1,2,1.56a4.39,4.39,0,0,1,2.24,2.59c.14.81.55,1.43.89,1.43s.61.54.61,1.22.89,1.57,2.25,2.11c1.7.68,2.65,1.7,3.53,3.88.68,1.63,1.64,3,2,3s1.23.89,1.71,2,1.08,2,1.29,2a6.29,6.29,0,0,1,1.43,2.38c.54,1.3,1.36,2.39,1.9,2.39s.75.47.48,1.29,0,1.36,1,1.63a2.67,2.67,0,0,1,1.77,1.63,12,12,0,0,0,1.15,2.59c.41.75,1.16,2.24,1.71,3.27a6.06,6.06,0,0,0,2.65,2.58c.88.34,1.5.88,1.22,1.23a.83.83,0,0,0,.34,1.08,3.75,3.75,0,0,1,.68,2.45,6,6,0,0,0,1.36,3.47,5.24,5.24,0,0,1,1.37,2.66,2.15,2.15,0,0,0,.68,1.63c.4.2.68,1.16.68,2a2.87,2.87,0,0,0,.68,2,3,3,0,0,1,.68,2.11c0,.95.34,1.63.68,1.63s.68.62.68,1.36.34,1.36.68,1.36a.84.84,0,0,1,.68.89,21.3,21.3,0,0,0,2,4.69c1.09,2.11,1.84,4.43,1.7,5.11a2.72,2.72,0,0,0,1,2.51c1,1,1.43,2.11,1.43,4.29,0,1.56.34,2.93.68,2.93s.68.61.68,1.29a2.38,2.38,0,0,0,.68,1.77c.41.2.68,1.9.68,3.74a12.73,12.73,0,0,0,1.36,5.78c.75,1.29,1.16,2.38.89,2.38s-.14.34.34.82a4.9,4.9,0,0,1,.81,2.93,5.15,5.15,0,0,0,.89,3c.68.75.68,1,0,1.22a1.29,1.29,0,0,0,0,2.45c.61.21.61.48-.07,1.3s-.61,1.49.48,3.47c.88,1.56,1.29,3.6,1.29,6.6,0,2.31.34,4.55.75,5s.75,4.08.75,9.73c0,5.31.27,9.19.68,9.46s.68,1.43.68,2.72-.27,2.52-.68,2.72-.68,3.27-.68,6.8-.28,6.6-.68,6.81-.68,3-.68,6.19-.28,5.71-.55,5.71c-1.09,0-2.18,3.47-2.18,6.81,0,1.83-.34,3.54-.74,3.81s-.62,2.11-.55,4.62c.14,2.25,0,4.56-.34,5a8.84,8.84,0,0,0-.54,3.6c0,1.5-.21,2.66-.61,2.66s-.62.75-.62,1.63-.27,1.91-.68,2.11-.68,2.11-.68,4.15-.27,3.67-.68,3.67-.68.89-.68,2.05a11.33,11.33,0,0,1-1.36,4.42,11.28,11.28,0,0,0-1.36,4.42c0,1.09-.27,2.18-.68,2.38s-.68,1.16-.68,2.11-.27,1.63-.61,1.63-.82,1.5-1.09,3.41-.75,3.6-1.09,3.81-.41.74.07,1.29.54,1,0,1.36c-.34.2-.68,1.5-.68,2.79a9.38,9.38,0,0,1-.68,3.67c-.34.75-1,2-1.36,2.72a7.39,7.39,0,0,0-.68,3.07c0,1-.28,1.7-.68,1.7s-.68.81-.68,1.76c0,2-1.43,3.68-3.07,3.68-.81,0-1,.34-.68,1.43.55,1.56-.54,4.15-2.58,6.46-.75.89-1,1.63-.61,1.91.81.47-.55,3.81-1.5,3.81-1.29,0-3.13,2.31-3.13,3.87,0,.89-.41,1.57-.95,1.57s-.82.48-.62,1.22-.27,1.57-1.42,2.18A2.79,2.79,0,0,0,443.1,486c0,.88-.28,1.56-.68,1.56s-.68.89-.68,2a4.05,4.05,0,0,1-2.05,3.54,4.6,4.6,0,0,0-2,2.93,2.64,2.64,0,0,1-1.49,2,6.9,6.9,0,0,0-2.72,3,8.75,8.75,0,0,1-2.18,2.93,1.41,1.41,0,0,0-.68,1.56c.27.61,0,1-.55,1s-1.42.82-2,1.84a16.87,16.87,0,0,1-1.77,2.79,3.26,3.26,0,0,0-1,3.06c.07.34-.55.75-1.29,1s-1.36.82-1.36,1.3-1.23,1.49-2.73,2.11-2.72,1.63-2.72,2.1c0,1.3-2.85,4.9-3.81,4.9-.47,0-.95.82-1.09,1.84-.13,1.43-.61,2-1.83,2.11-2,.34-2.93,1.16-4.22,4.08-.48,1.16-1.29,2.18-1.7,2.18a4,4,0,0,0-2,1.36,4.63,4.63,0,0,1-1.77,1.36c-.34,0-2.32,1.7-4.49,3.74-2.59,2.45-4.49,3.74-5.58,3.74-1.84,0-4.15,1.77-4.15,3.07,0,.47-.68,1-1.5,1.22s-1.29.61-1,.88c.75.75-2.31,3.68-3.81,3.68a4.53,4.53,0,0,0-2.59,1.09,18,18,0,0,1-3.4,2.24,10.24,10.24,0,0,0-3.54,3.68c-1.08,2.11-1.63,2.51-3.53,2.51a4.74,4.74,0,0,0-3.07,1,2.94,2.94,0,0,1-1.76,1c-.55,0-1,.28-1,.69s-.61.68-1.36.68-1.36.27-1.36.61-1.15.75-2.52.88c-1.7.14-2.58.55-2.65,1.23s-.13,1.43-.13,1.83c-.07.55-1.16.89-2.73.89-2.79,0-6.26,1.29-6.26,2.38,0,.82-3.19,2.38-4.89,2.38-.68,0-1.23.2-1.23.48,0,.61-3.33,2.24-4.56,2.24a11.38,11.38,0,0,0-3.26,1.36,11,11,0,0,1-3.4,1.36,5,5,0,0,0-2.25.68c-.61.34-2.38,1.09-3.88,1.7s-3.26,1.43-4,1.84-1.43.41-1.77-.13-.61-.62-.95-.07-1.84.75-3.54.75-3,.27-3,.68-.74.68-1.56.68a4.46,4.46,0,0,0-2.86,1.36c-.88,1-2.11,1.36-4.15,1.36-1.63,0-3.13.27-3.33.68s-2.18.68-4.36.68-4.15.27-4.55.68-3.68.82-7.35,1-7.15.68-7.62,1.09a2,2,0,0,1-2.25,0c-1.09-.61-1.9-.48-3.81.61-2.65,1.5-4.76,1.77-5.51.61-.27-.54-.61-.54-1.15,0-1,1-9.8,1-10.35.07-.47-.75-2.24-.61-3.67.27a.93.93,0,0,1-1.33-.13.71.71,0,0,1-.1-.14c-.34-.61-.61-.61-.95-.07-.55.89-11.16.82-11.7-.06-.21-.28-.89-.14-1.64.27a1.65,1.65,0,0,1-2.38-.14c-.88-.75-2.72-.88-6.87-.75-4.83.14-5.71,0-5.71-.88,0-.61-.28-1.09-.68-1.09s-.69.48-.69,1c0,1.23-.81,1.29-1.83.27-.41-.41-3.13-.81-5.92-.88-3.61-.07-5.17-.34-5.17-1s-1-.82-3-.82a7.68,7.68,0,0,1-4.69-1.36c-1.29-1-2.72-1.36-5.85-1.36-2.31,0-4.15-.27-4.15-.68s-.75-.68-1.63-.68a3.06,3.06,0,0,1-2.11-.68,3.25,3.25,0,0,0-2.25-.68c-1.9,0-6.53-1.43-7.35-2.25a4.25,4.25,0,0,0-2.24-.48,15,15,0,0,1-5.1-1.7,15.18,15.18,0,0,0-5.31-1.7c-1.09,0-1.91-.34-1.91-.68s-.54-.68-1.22-.68a2.94,2.94,0,0,1-2-1.36,2.88,2.88,0,0,0-2.11-1.36c-1.43,0-5.31-1.84-5.85-2.79-.27-.34-1.84-.61-3.54-.61-2.45,0-3.13-.27-3.4-1.36a1.83,1.83,0,0,0-2-1.36c-.89,0-1.64-.34-1.64-.68s-.54-.68-1.22-.68a3.27,3.27,0,0,1-2.18-1.36,3.24,3.24,0,0,0-1.77-1.36,6.56,6.56,0,0,1-2.58-1.71,6.18,6.18,0,0,0-2.79-1.7,9.65,9.65,0,0,1-3.2-1.22,6.41,6.41,0,0,0-3.06-1,.68.68,0,0,1-.89-.68c0-.55-.88-1.43-2-2s-2-1.09-2-1.37-.61-.54-1.36-.54-1.36-.2-1.36-.54-1.84-1.43-5.58-2.79c-1.09-.41-1.9-1.09-1.9-1.57,0-1-2.73-3.94-3.75-3.94-.4,0-2-1.23-3.4-2.79a16.72,16.72,0,0,0-4.22-3.41c-.81-.34-1.56-1-1.56-1.63a1,1,0,0,0-.89-1,4,4,0,0,1-2.17-1.36,3.92,3.92,0,0,0-2-1.36,5.18,5.18,0,0,1-2.39-1.7c-1.15-1.23-2-1.57-3-1.29-1.22.4-1.29.34-.54-.55s.54-1.22-.55-2.24c-.75-.68-1.15-1.5-.95-1.77s-.2-.82-.88-1.09c-1.71-.55-5.65-4.36-5.65-5.44a1,1,0,0,0-1-.89c-.61,0-1.36-.75-1.7-1.7a4.54,4.54,0,0,0-2.38-2.38,4.68,4.68,0,0,1-2.39-2.31,5.26,5.26,0,0,0-1.36-2.11,5.13,5.13,0,0,1-1.36-2,5.93,5.93,0,0,0-2.51-2.52,3.29,3.29,0,0,1-2.11-2.79c-.21-1.5-.48-1.84-1.57-1.5-.88.27-1.29.14-1.29-.61s-1.57-2.52-3.4-4.29-3.4-3.67-3.34-4.28c.28-2.32-1.9-5.45-3.74-5.45-.75,0-1.09-.61-1.09-2a3.45,3.45,0,0,0-.54-2.24,18.13,18.13,0,0,1-2.38-4,21.56,21.56,0,0,0-3.61-5.44,15.81,15.81,0,0,1-3-4.42,14.38,14.38,0,0,0-2.38-3.68,3.84,3.84,0,0,1-1-2.58,6,6,0,0,0-1.43-3.27,8.4,8.4,0,0,1-1.77-4.62c-.27-2.39-.95-3.54-3-5.58s-2.44-2.79-1.9-3.47.54-.89,0-.89-.75-.54-.75-1.22a3.2,3.2,0,0,0-1.36-2.18,3.68,3.68,0,0,1-1.36-3.13,4.62,4.62,0,0,0-1-3,3.68,3.68,0,0,1-1-2.45,2.87,2.87,0,0,0-.68-2c-.34-.2-.68-1.76-.68-3.4a15.2,15.2,0,0,0-2-6.8,19.84,19.84,0,0,1-2-5.1,1.8,1.8,0,0,0-.82-1.57c-.68-.27-.61-.54.14-1.15s.81-.89.2-1.16-.88-1.57-.88-3.2c0-2.11-.41-3.26-1.43-4.22a3.08,3.08,0,0,1-1.09-2.45c.2-.68.13-1.36-.14-1.49s-.54-2-.61-4.22a12.3,12.3,0,0,0-1-4.9c-.62-.68-.62-1,.07-1.5s.68-.68.13-.95a4.13,4.13,0,0,1-.75-2.79,4.24,4.24,0,0,0-.68-2.72c-.34-.2-.68-2.25-.68-4.42,0-2.59-.27-4.08-.81-4.29s-.68-.48.06-1.36.68-1.16.14-1.16c-1,0-1-14.69-.07-15.3A.78.78,0,0,0-.22,359a1.15,1.15,0,0,0-.14-.17c-.95-1.29-.95-8.71,0-9.8.61-.74.61-1.08-.21-1.56s-.74-.82-.06-1.5c.47-.47.81-2.79.81-6,0-2.85.27-5.44.61-5.85s.82-3.4,1-6.73c.41-6.81,1-11.23,1.83-12.25a6.69,6.69,0,0,0,.34-3.26c-.06-1.43.14-2.73.48-2.93s.54-2,.54-4.08a14.15,14.15,0,0,1,.82-5.24c.48-.89,1.09-2.11,1.43-2.86s1.56-3,2.59-5a18.75,18.75,0,0,0,2-5.31,2.6,2.6,0,0,1,.68-1.9c.41-.21.68-1.43.68-2.73s.27-2.45.61-2.65.41-1.09.27-2,0-1.84.41-2,.75-1.5.75-2.79a4.24,4.24,0,0,1,.68-2.72c.34-.21.68-1.7.68-3.27,0-2.11.34-3.2,1.36-3.88a3.76,3.76,0,0,0,1.36-2.79c0-1.76,2.38-7.07,4.15-9.18a5.23,5.23,0,0,0,.75-3.06,5.53,5.53,0,0,1,1.16-3.74,7.24,7.24,0,0,0,1.43-3.81c0-1.43.4-2.11,1.36-2.39.75-.2,1.36-.74,1.36-1.15a7.87,7.87,0,0,1,2-2.79,9.84,9.84,0,0,0,2-2.45,7.78,7.78,0,0,1,1.7-2.38,6.32,6.32,0,0,0,1.7-3.27,3.47,3.47,0,0,1,1.36-2.45,3.1,3.1,0,0,0,1.36-1.83,7.35,7.35,0,0,1,2-3A17.84,17.84,0,0,0,44.54,214c.48-1,1.36-2,2-2.18a3.49,3.49,0,0,0,1.84-2,20.89,20.89,0,0,1,3.74-4.56c1.7-1.63,2.93-3.2,2.79-3.4s1.29-2.11,3.13-4.15a24.32,24.32,0,0,0,3.33-4.22c0-.27.48-.54,1-.54a1.82,1.82,0,0,0,1.5-1.23c.48-1.36,4.29-5.58,5-5.58s3.74-2.92,4.21-4.21c.21-.69,1.64-1.71,3.13-2.39s2.86-1.7,3-2.38A1.65,1.65,0,0,1,80.74,176c.61,0,2.45-1.36,4.08-3.06a14.23,14.23,0,0,1,3.74-3.07.74.74,0,0,0,.75-.68c0-.4.48-.68,1-.68s1-.34,1-.68,1.77-1.83,4-3.19,4-2.73,4.08-3.07a1.3,1.3,0,0,1,1.09-.54,4,4,0,0,0,2.11-1.36,4.17,4.17,0,0,1,2-1.36c.47,0,1-.61,1.22-1.36a1.85,1.85,0,0,1,2-1.36,3.91,3.91,0,0,0,2.52-1,3.44,3.44,0,0,1,2.31-1c.82,0,2.66-1.23,4.15-2.73,2-2,3.2-2.72,4.83-2.72s2.25-.34,2.52-1.36a1.86,1.86,0,0,1,2-1.36c1.77,0,5.65-1.7,6.26-2.79a2.47,2.47,0,0,1,1.7-.61,10.33,10.33,0,0,0,3.74-1.36,10.44,10.44,0,0,1,3.75-1.36c.75,0,1.36-.34,1.36-.68s.68-.68,1.56-.68a4,4,0,0,0,2.38-.82c.68-.68,1.16-.68,2.18,0s1.43.61,2-.54a2.6,2.6,0,0,1,2-1.36,3.26,3.26,0,0,0,2.1-1,3.26,3.26,0,0,1,2.11-1,10.78,10.78,0,0,0,3.68-1.37,10.71,10.71,0,0,1,4.08-1.36,2.87,2.87,0,0,0,2-.68,3,3,0,0,1,2.11-.68c1,0,1.63-.27,1.63-.61s1.84-.54,4.08-.54c3.27,0,4.43-.28,5.65-1.43,1.84-1.7,2.66-1.84,4.56-.68,1,.68,1.5.68,2.18,0a7.07,7.07,0,0,1,3.67-.82c1.7,0,3.2-.41,3.68-1s2.1-1,4.83-1c2.17,0,4.15-.34,4.35-.68.54-.88,3.54-.88,4.15.07.27.54.61.47,1-.14s.75-.68,1.64,0,1.08.68,1.08.14,1.43-.75,3.68-.75c2,0,3.94-.34,4.15-.68s2.24-.68,4.42-.68,4.22.27,4.42.68,1.16.68,2.11.68,1.63-.34,1.63-.68.62-.68,1.37-.68,1.36.34,1.36.81c0,.62.2.62.81,0a5.21,5.21,0,0,1,3.06-.81c1.23,0,2.25-.34,2.25-.68a.62.62,0,0,1,.57-.68h0A1.29,1.29,0,0,1,242.73,119.5ZM.18,396.4c0,.34-.47.69-1,.69s-1-.35-1-.69.48-.68,1-.68S.18,396,.18,396.4Z" style="fill: #0034b9"/>
    <path d="M246.47,132a3,3,0,0,0,.68,2.11c.34.2.68,1.9.68,3.67s.41,3.61.89,4.08c.68.75.68,1,0,1.23s-.89,1.63-.89,3.94-.34,3.81-.81,4c-.68.34-.68.47,0,.81,1.09.55,1.15,10.28,0,10.62-.48.2-.75,1.36-.68,3.06.13,2.31-.07,2.79-1.23,3.13s-1.43.81-1.22,2c.2,1.36.61,1.57,3.26,1.7a11.36,11.36,0,0,0,4.7-.68c1.29-.61,1.7-.61,1.9.07.21.41.61.68.95.41.82-.48.82-4.15-.06-4.7s-.89-25.31,0-25.85a2.24,2.24,0,0,0,.61-1.91c-.34-3.94.07-6.59,1.09-6.59.54,0,1-.34,1-.69s-.75-.68-1.7-.68-1.7-.34-1.7-.68-1.7-.68-3.75-.68C246.68,130.38,246.47,130.45,246.47,132Z" style="fill: #0034b9"/>
    <path d="M210.75,132.42a2.7,2.7,0,0,1-2,.69,4.34,4.34,0,0,0-2.79,1.36,4,4,0,0,1-2.18,1.36.83.83,0,0,0-.88.8h0a4.48,4.48,0,0,1-1.16,2,5.27,5.27,0,0,0-1,3.95c.07,1.43-.14,2.79-.54,3.06-1,.55-1,13.41-.14,14.36a5.57,5.57,0,0,1,.88,2.65,3.11,3.11,0,0,0,1.77,2.72c.82.34,1.5,1.09,1.5,1.57,0,1,1.63,2.85,2.52,2.85.27,0,.95.62,1.43,1.37a3,3,0,0,0,2.11,1.36,2.49,2.49,0,0,1,1.7.54c.34.61,2.38.68,3.47.07a22.65,22.65,0,0,1,4.42-.55c2-.06,4-.4,4.42-.81a4.93,4.93,0,0,1,2.86-.61h2.24V164c0-3.94.34-7.75.75-8.5a1.92,1.92,0,0,0,0-2.25c-.88-1-7.35-1.29-8-.34-.27.41-.68.41-1.29-.06s-1.09-.48-1.29-.14.06,1.09.68,1.56c2.24,1.84,3.67,8.37,2.11,9.87a3.78,3.78,0,0,0-.48,2.11c0,1.09-.41,1.56-1.36,1.56-.75,0-1.36.48-1.36,1,0,1.16-3.06,1.43-3.74.34-.21-.4-1.16-.68-2.11-.68s-1.64-.4-1.64-.95a3,3,0,0,0-1-1.77c-1.77-1.49-4-7-3.81-9.39a11.12,11.12,0,0,0-.61-4.28c-.68-1.57-.68-2.18,0-2.93a7,7,0,0,0,.68-3.6c-.13-3.68.61-5.65,2.52-6.4a4.4,4.4,0,0,0,2.24-2.31,2.29,2.29,0,0,1,2.59-1.7,4.78,4.78,0,0,1,2.45.47,3.14,3.14,0,0,0,2,.55,2.51,2.51,0,0,1,2.18,1.49c.82,1.91,3.74,2.11,5.31.34s1.42-2.17-.48-4.42c-1.5-1.77-1.84-1.84-8.1-1.84C214.09,131.74,211,132,210.75,132.42Z" style="fill: #0034b9"/>
    <path d="M290.7,135.15a11.14,11.14,0,0,1-4.22.68c-1.77,0-3.4.27-3.61.68a2.17,2.17,0,0,1-1.63.68,4.59,4.59,0,0,0-2.52,1.43,8.67,8.67,0,0,1-2.79,2c-1.22.47-1.56,1.09-1.56,3,0,1.29-.21,2.38-.48,2.38-.95,0-2.92,4.15-2.92,6.13a3.54,3.54,0,0,1-.68,2.38c-.55.34-.55.74-.07,1.29a1.06,1.06,0,0,1,.07,1.5.86.86,0,0,1-.14.13c-.61.61-.61,1.16,0,2.32a28.7,28.7,0,0,1,1.77,8.43c.27,2.66.81,3.61,2.65,4.42a22.94,22.94,0,0,1,5.92,3.68c1.16,1.09,1.7,1.15,2.72.47s1.36-.54,1.57.07.68.61,1.83-.07,1.7-.74,2.25-.2c1.77,1.77,7.28,0,7.28-2.38A3.42,3.42,0,0,1,297,172c.61-.61.47-1.09-.48-2.18-1.77-2-3.13-1.7-6.12,1.37-2.39,2.44-3,2.72-5.86,2.72-2.65,0-3.47-.34-4.62-1.77a6.41,6.41,0,0,1-1.43-3.06,2,2,0,0,0-.68-1.64c-.89-.54-.89-11.9,0-11.9.34,0,.68-.68.61-1.57a12.31,12.31,0,0,1,3.88-9.66c1.63-1.43,3.13-2.18,3.88-2s1.15,0,1.15-.68c0-.89.82-1.09,3.75-1.09,2.65,0,3.74.27,3.74.88,0,1,4.69,5.85,4.83,5a12.39,12.39,0,0,1,.88-2.66c.89-2,.14-4.89-1.43-5.64-.88-.34-1.56-.89-1.56-1.23a3.18,3.18,0,0,0-1.09-1.63c-.82-.88-1.36-.95-2.31-.34-.68.41-1.43.48-1.77.14A1.4,1.4,0,0,0,290.7,135.15Z" style="fill: #0034b9"/>
    <path d="M172.31,139.36c-1.7.82-3.19,1.57-3.33,1.71s.54,1.08,1.5,2.1a6.81,6.81,0,0,1,1.83,3.41c0,.81.34,1.49.68,1.49s.68,1.64.68,3.68.34,3.94.68,4.15a2.37,2.37,0,0,1,.68,1.77,8.17,8.17,0,0,0,.69,2.65c.4.75,1,2,1.36,2.72a18.55,18.55,0,0,1,.68,5.44c0,2.25.27,4.09.68,4.09s.68,1.08.68,2.38-.28,2.38-.68,2.38a.67.67,0,0,0-.68.68c0,1,3.81.82,5.51-.21,1.15-.68,1.56-.68,1.77,0,.4,1.16,1.56,1.09,3.19-.13,1.23-.89,1.23-1.09.28-2.18a8,8,0,0,1-2-5.78,2.9,2.9,0,0,0-.54-2.25,2.75,2.75,0,0,1-.75-2.11c0-.95-.27-1.63-.68-1.63s-.68-.75-.68-1.63-.27-1.91-.68-2.11-.68-1.77-.68-3.47-.27-3-.68-3-.68-.62-.68-1.36-.27-1.37-.68-1.37-.68-.61-.68-1.36-.27-1.36-.62-1.36c-.88,0-1.63-6.94-.74-7.48,1.15-.75,0-2.72-1.64-2.72A21.71,21.71,0,0,0,172.31,139.36Z" style="fill: #0034b9"/>
    <path d="M327,143.11a1.68,1.68,0,0,0-1.57,1.63,1.16,1.16,0,0,1-1,1.29h-.2c-.75,0-1.84,1-2.59,2.38a8,8,0,0,1-3.13,3.27c-1.08.41-1.9,1.36-1.9,2s-.27,1.23-.68,1.23a.72.72,0,0,0-.68.68,12.36,12.36,0,0,1-1.7,3.4,11,11,0,0,0-1.7,4.69c0,1.09-.27,2.25-.68,2.45s-.68,1.16-.68,2-.28,1.84-.68,2-.68,1.3-.68,2.32a4.27,4.27,0,0,1-.82,2.65c-.61.61-.54.82.27.82,1.84,0,2.11,1.29.41,2l-1.5.55,1.5.95a3.13,3.13,0,0,1,1.5,2,1.8,1.8,0,0,0,1.22,1.56,19.23,19.23,0,0,1,6.26,4.15c1.23,1.23,2,1.57,2.38,1s.75-.54,1.23-.13c1.9,1.56,6.19,1.36,10-.41,4-1.84,6.8-4,6.8-5.17,0-.41.68-1.09,1.57-1.43a3.45,3.45,0,0,0,1.7-2.38,5,5,0,0,1,.88-2.31,4,4,0,0,0,.61-2.25c0-.88.34-1.56.68-1.56s.68-.62.68-1.36.34-1.37.68-1.37c1.23,0,.55-8.91-.81-11.43a9.41,9.41,0,0,1-1.23-3.53c0-.75-.4-1.36-.88-1.36a4,4,0,0,1-2.18-1.36,4.19,4.19,0,0,0-2-1.37c-.48,0-1-.61-1.22-1.36a1.75,1.75,0,0,0-1.43-1.36c-.68,0-1.09-.61-1.09-1.56s-.75-1.84-2.45-2.72a13.38,13.38,0,0,0-2.86-1.09C328.66,142.77,327.78,143,327,143.11Zm5.71,11.63c.68.82,1,.89,1.91.14s1.29-.68,2.38.34a4.49,4.49,0,0,1,1.36,2.85c0,.82.34,1.57.68,1.57,1.23,0,.75,2.38-.68,3.4a3.49,3.49,0,0,0-1.36,2.52,2.67,2.67,0,0,1-.75,2c-.54.27-.47.61.14,1s.68.82-.27,1.84a2.58,2.58,0,0,0-.75,2.45c.2.61.13,1.09-.27,1.09s-.82.81-1,1.83c-.47,2.18-6.12,8.37-7.62,8.37-.54,0-1,.27-1,.68,0,2.11-8.16-1.43-9.38-4s-1-7.21.54-9.93a10.44,10.44,0,0,0,1.36-3.75c0-.75.27-1.36.61-1.36s.89-.68,1.09-1.56c.95-3.2,2.52-5.92,3.4-5.92.55,0,1.91-1.36,3.06-3.06,2-2.86,2.18-3,3.95-2.25A9.31,9.31,0,0,1,332.67,154.74Zm11.77,6.94a.67.67,0,0,1-.68.68.75.75,0,0,1-.68-.68.68.68,0,0,1,.68-.68.63.63,0,0,1,.68.6A.11.11,0,0,1,344.44,161.68Z" style="fill: #0034b9"/>
    <path d="M138.16,153.38c-2.18.14-3.95.48-3.95.82s-.61.68-1.36.68-1.36.27-1.36.54-1.15,1-2.52,1.57c-7.68,3-9.72,5-6.46,6.39.82.34,1.5.89,1.5,1.09a13.81,13.81,0,0,0,2,2.65,7.94,7.94,0,0,1,2,3.75,3.06,3.06,0,0,0,.61,2,4.77,4.77,0,0,1,1.09,2.24,5.47,5.47,0,0,0,1.7,2.86,3.22,3.22,0,0,1,1.36,2.11c0,1.43,1.84,5,3.06,6a3.64,3.64,0,0,1,1,2.45c0,.89.34,1.64.75,1.64s.62.88.34,2.72c-.34,2.17-.2,2.85.68,3.19a1.87,1.87,0,0,0,1.84-.4,3.39,3.39,0,0,1,2-.75c1.77,0,6-2,7.35-3.54a4,4,0,0,1,2.52-1.22,2,2,0,0,0,1.77-1.23,5.32,5.32,0,0,1,2.31-2.31c3.6-2.18,4.15-3.27,4.42-9.46.27-6-.2-7.82-3.33-12.93a14.11,14.11,0,0,1-1.77-4.08,3.43,3.43,0,0,0-1.7-2.38,13,13,0,0,1-2.79-1.84,3.94,3.94,0,0,0-2.25-1.15,2.66,2.66,0,0,1-1.63-.62C146.6,153.52,142.85,153.11,138.16,153.38ZM142,157.6a2.38,2.38,0,0,0,1.77.68c1.49,0,3.33,1.5,3.33,2.72,0,.95,1.7,2.72,2.65,2.72.41,0,.75.68.75,1.57a3.6,3.6,0,0,0,1.36,2.51,3.48,3.48,0,0,1,1.36,2.52,2.68,2.68,0,0,0,.68,1.91c.41.2.68,2.85.68,5.85,0,4.76-.2,5.64-1.56,6.94a12.7,12.7,0,0,1-6.46,3.53c-1.71.34-2.18.21-2.18-.61a2.77,2.77,0,0,0-1.36-1.9,3,3,0,0,1-1.36-2c0-.68-.28-1.23-.68-1.23s-.68-.61-.68-1.36-.28-1.36-.68-1.36-.68-.61-.68-1.36a4.68,4.68,0,0,0-1.37-2.72c-.81-.82-1.22-1.63-1.08-2s-.21-1.08-1-1.76a4.16,4.16,0,0,1-1.36-2.39c0-1.42-1.56-4.76-2.17-4.76-.34,0-.55-1.56-.55-3.4,0-2.93.21-3.4,1.36-3.4.75,0,1.36-.34,1.36-.68s1.64-.68,3.68-.68S141.83,157.19,142,157.6Z" style="fill: #0034b9"/>
    <path d="M368.94,168.42c0,1.15-.27,2.24-.68,2.45a2.37,2.37,0,0,0-.68,1.76c0,.68-.28,1.3-.68,1.3s-.68.47-.68,1-1.09,2-2.39,3.33-2.38,2.86-2.38,3.4a1.54,1.54,0,0,1-.95,1.3,6.57,6.57,0,0,0-2.11,2.79,10.4,10.4,0,0,1-2.79,3.46c-.88.55-1.63,1.43-1.63,1.91,0,1-6.19,7.28-7.21,7.28a2.72,2.72,0,0,0-1.43.75c-.55.54.2,1.63,3,4.08,5,4.29,6.81,4.42,6.33.41a3.62,3.62,0,0,1,1.29-2.45,3.92,3.92,0,0,0,1.43-2.38c0-.61.34-1.09.68-1.09s.68-.61.68-1.36.61-1.5,1.91-1.77a8.73,8.73,0,0,0,2.72-1.16c.54-.41,1.16-.34,1.9.28,1.09.88,1,4.49-.13,15-.48,4.7.68,8,2.79,8a3.47,3.47,0,0,1,2.24.82c.95.95.95.74.82-4-.07-2,.27-3.74.68-4s.54-.68,0-1.36-.55-1,0-1.37c.34-.2.68-1.49.68-2.79,0-2.51,2.38-6.39,3.88-6.39a4.85,4.85,0,0,0,2.38-1.36A5.75,5.75,0,0,1,382,195c1.22,0,1.91-.34,1.91-1a1,1,0,0,1,1-1c1.49,0,4.76-5.38,3.81-6.33a3.72,3.72,0,0,1-.75-2.31c0-.89-.27-1.57-.68-1.57s-.68-.41-.68-1c0-1-7.15-7.89-8.17-7.89-.34,0-.81-.62-1-1.36a1.79,1.79,0,0,0-1.43-1.36c-.54,0-.95-.28-.95-.62s-1.09-1.09-2.38-1.7-2.38-1.43-2.38-1.77a.65.65,0,0,0-.6-.68h-.08C369.28,166.44,368.94,167.33,368.94,168.42Zm7.48,8.91c0,1.5,1.09,1.84,1.5.54s2.58,1,2.58,2.45c0,.61.34,1.09.68,1.09s.68,1,.68,2.18c0,4.15-8.84,11.43-10.54,8.71-.21-.41-1.09-.68-2-.68a3.69,3.69,0,0,1-2.32-.82c-1-1-1.09-3.27-.13-3.27.4,0,.68-.68.68-1.56a5.28,5.28,0,0,1,1.7-3.2,5.4,5.4,0,0,0,1.7-2.31c0-1,3.54-4.49,4.56-4.49C376,176,376.42,176.58,376.42,177.33Z" style="fill: #0034b9"/>
    <path d="M94,190.8a18.12,18.12,0,0,1-1.77,2.72,3,3,0,0,0-.88,1.5c0,2.18-5.44,4.42-6.46,2.72-.21-.41-1.3-.68-2.45-.68-2.25,0-2.72,1.7-.61,2.24A1.92,1.92,0,0,1,83.19,201a4.06,4.06,0,0,0,1.29,2.44c2.11,1.91,1,6.6-2.31,9.12-1.71,1.36-1.3,2.86.54,1.7a9.67,9.67,0,0,1,3.4-.68,14,14,0,0,0,4-1c1.15-.61,1.7-.41,3.87,1.7,2.93,2.86,5.51,3.27,5.51.88a3.71,3.71,0,0,0-.74-2.31c-.55-.54-.55-.88,0-1.16a3.78,3.78,0,0,0,.74-2.58c0-1.43.41-2.11,1.37-2.38.74-.21,1.36-.68,1.36-1.16s.68-1.09,1.49-1.43a4,4,0,0,0,1.7-1.36c.21-.68-2.79-2.38-4.21-2.38-2.66,0-6.67-4.15-5-5.17.41-.2.34-.75-.14-1.36a3.59,3.59,0,0,1-.34-2.59C96.32,189,95.16,188.62,94,190.8Z" style="fill: #0034b9"/>
    <path d="M221,192.3c-.21.34-3.13.68-6.46.68s-6.26.27-6.47.68-1.77.68-3.4.68-3.2.27-3.4.68-1.77.68-3.47.68a12,12,0,0,0-4.56.81c-3.4,1.71-3.95,1.91-6.4,1.91a18,18,0,0,0-6,1.7,19.71,19.71,0,0,1-4.56,1.7c-.61,0-1.23.27-1.23.68s-.74.68-1.63.68-1.9.27-2.11.68-1.22.68-2.17.68c-1.43,0-1.57.14-.89,1s.61,1.09-.34,1.43a1.36,1.36,0,0,1-1.7-.47c-.48-.75-.95-.62-2.25.61a9.29,9.29,0,0,1-4.15,2c-1.36.21-2.44.68-2.44,1s-.48.62-1,.62a6,6,0,0,0-2.24.61c-.61.34-3.47,1.7-6.33,3.06a29.75,29.75,0,0,0-6.39,3.81,4.08,4.08,0,0,1-2,1.36c-.47,0-1.22.61-1.77,1.36a3.09,3.09,0,0,1-2,1.36,3.17,3.17,0,0,0-2,1.36A3.1,3.1,0,0,1,131.7,225c-.41,0-1,.62-1.23,1.36a2.05,2.05,0,0,1-1.77,1.37,1.88,1.88,0,0,0-1.7,1,1.35,1.35,0,0,1-1.56.74c-.82-.27-1.5.55-2.66,2.93-1.43,3-7.28,8.91-8.77,8.91a7.62,7.62,0,0,0-2.59,2c-1.09,1.16-1.7,2-1.36,2s-1,1.64-2.79,3.68c-4.15,4.56-4.63,5.17-5.71,7.28a7.64,7.64,0,0,1-1.84,2.31c-.89.68-2.18,2.66-3.54,5.44a15.46,15.46,0,0,1-3.06,3.68c-1.84,1.77-2.45,2.92-2.45,4.62s-.34,2.25-1,2.25a1,1,0,0,0-1,.88,4,4,0,0,1-1.36,2.18,4.46,4.46,0,0,0-1.36,2.86c0,.82-.27,1.56-.68,1.56s-.68.75-.68,1.64-.28,1.9-.68,2.11a2.3,2.3,0,0,0-.68,1.7A9.41,9.41,0,0,1,82,291.08c-.61,1.23-1.56,3.47-2.11,5a70.56,70.56,0,0,1-3.54,8.64,15.36,15.36,0,0,0-.61,4.83c0,3.47-1.15,7.28-2.18,7.28-.34,0-.54,2-.54,4.42s-.27,4.43-.68,4.43-.68,1.63-.68,3.6-.27,3.88-.61,4.22-.68,5.85-.75,12.25-.41,12.58-.82,13.88a4.74,4.74,0,0,0,.07,3.74,30.58,30.58,0,0,1,1,6.53c.48,7.42,1.16,11.57,1.84,11.57.34,0,.61,2,.61,4.35s.34,4.63.68,4.83.68,1.63.68,3.06.34,2.86.68,3.06a2.9,2.9,0,0,1,.68,2.05,2.89,2.89,0,0,0,.68,2,2.86,2.86,0,0,1,.68,2,2.87,2.87,0,0,0,.68,2,2.87,2.87,0,0,1,.68,2,2.87,2.87,0,0,0,.68,2,.76.76,0,0,1,.36,1l0,0c-.2.34.28,1.7,1,3.06a11,11,0,0,1,1.37,3.34,6.39,6.39,0,0,0,1.36,2.65,6.54,6.54,0,0,1,1.36,3.13c0,.82.34,1.43.68,1.43s.68.61.68,1.36.34,1.36.68,1.36.68.75.68,1.63a3.06,3.06,0,0,0,.68,2.11,2.39,2.39,0,0,1,.68,1.77,1.89,1.89,0,0,0,1,1.7,2.45,2.45,0,0,1,1,2.11,1.86,1.86,0,0,0,1.36,2,1.79,1.79,0,0,1,1.36,1.5c0,1.5,1.57,4.83,2.25,4.83.27,0,.47.88.47,2,0,1.57.28,2,1.36,2,.75,0,1.36.48,1.36,1s1.09,2,2.39,3.34,2.38,3.06,2.38,3.87a1.8,1.8,0,0,0,1.36,1.77c.75.21,1.36.75,1.36,1.16s1.7,2.45,3.74,4.49,3.74,4.08,3.74,4.56S115,470,116.52,471s2.73,2.25,2.73,2.72a.92.92,0,0,0,.88,1h0c.48,0,1.16.68,1.5,1.49a5.44,5.44,0,0,0,2.31,2.32,48.37,48.37,0,0,1,6.46,5.64c2.66,2.66,5.17,4.83,5.58,4.83a5.47,5.47,0,0,1,2.32,1.7,5.73,5.73,0,0,0,2.24,1.71,6.45,6.45,0,0,1,2.38,1.83c1.84,1.91,7.08,5,8.57,5,.41,0,2.18,1.36,3.95,3.06s3.67,3.06,4.22,3.06a1.73,1.73,0,0,1,1.43.68,2.38,2.38,0,0,0,1.77.68,9.67,9.67,0,0,1,4.69,2,15.92,15.92,0,0,0,6.26,2.73,11.42,11.42,0,0,1,4.29,2,11.06,11.06,0,0,0,5,2c1.16,0,2.11.27,2.11.68s.88.68,2,.68a10.54,10.54,0,0,1,4.22,1.22,20.46,20.46,0,0,0,8.37,2.66c1.15.06,4.22.34,6.8.61s4.9.68,5,1,1,.61,1.84.61,1.83.27,2,.68,2,.68,4.08.68,3.88.34,4.08.68a3.42,3.42,0,0,0,2.31.68,4.34,4.34,0,0,1,2.59.75c.54.55.88.55,1.16,0,.68-1,3.6-.95,4,.07.27.68.54.61,1.09-.14s.95-.88,2-.2,1.57.54,2,.07.82-.41,1.09.07c.61,1,11.3,1,11.3.06s2.24-.88,3.26.14c.61.61,1,.61,1.63,0s2.18-.82,3.88-.82a22.51,22.51,0,0,0,9.05-2.11c.68-.34,1.36-.34,1.57.07a.86.86,0,0,0,1.15.27,11,11,0,0,1,3.54-.74,8.11,8.11,0,0,0,3.4-.89,3.55,3.55,0,0,1,2.18-.68,2.69,2.69,0,0,0,2-.68c.21-.41,2-.68,4.08-.68,2.59,0,3.68-.27,4-1a1.62,1.62,0,0,1,1.43-1c.54,0,1-.34,1-.68s1.22-.68,2.72-.68a6,6,0,0,0,4.22-1.36,5.32,5.32,0,0,1,3.06-1.36c.88,0,1.56-.34,1.56-.68s.62-.68,1.36-.68,1.37-.34,1.37-.68,1.22-.68,2.72-.68c1.83,0,2.92-.34,3.13-1a2.08,2.08,0,0,1,1.77-1,7.94,7.94,0,0,0,3.74-2,8,8,0,0,1,3.47-2,3.18,3.18,0,0,0,2.17-1.36,3.25,3.25,0,0,1,2.18-1.36c.68,0,1.23-.34,1.23-.68a.83.83,0,0,1,.88-.68,6.26,6.26,0,0,0,2.65-1.7,7.05,7.05,0,0,1,2.45-1.7,4.23,4.23,0,0,0,1.84-1.36,3.88,3.88,0,0,1,2-1.36c.48,0,1.5-.82,2.45-1.77a14.85,14.85,0,0,1,3.54-2.72c1-.55,1.84-1.43,1.84-2a1,1,0,0,1,.88-1c1.16,0,3.33-2.31,2.79-2.85-.21-.28.82-1,2.24-1.64,2.59-1.15,18.58-16.33,18.58-17.62,0-.41,1.36-2.11,3.06-3.74s3.06-3.61,3.06-4.49a1.84,1.84,0,0,1,1.36-1.84c1-.2,1.36-.95,1.36-2.11s.41-1.77,1-1.77,1-.61,1-1.7.34-1.7,1.36-1.7,1.37-.47,1.37-2c0-1.16.34-2,.68-2s.68-.41.68-.95a3,3,0,0,1,1-1.77c1.29-1.09,3.06-4.63,3.06-6.12a2.78,2.78,0,0,1,.88-1.91,10.43,10.43,0,0,0,1.84-3.2c.48-1.29,1.16-2.38,1.5-2.38s.54-.88.54-1.9a3.61,3.61,0,0,1,1.36-2.86,3.47,3.47,0,0,0,1.36-2.45,4.34,4.34,0,0,1,1.36-2.65c1-.89,1.16-1.5.68-2-.68-.89.75-5.38,3.47-10.69a8.51,8.51,0,0,0,.62-3.19,3.59,3.59,0,0,1,.68-2.45c.34-.21.68-1.64.68-3.07s.34-2.85.68-3.06.68-1.77.68-3.4.34-3.2.68-3.4a3,3,0,0,0,.68-2.11c0-.95.27-1.63.61-1.63.68,0,1.09-6.26,1.77-26.47.34-9.32.2-12.93-.41-14.08s-.61-1.77.07-2.66.68-1.29.13-1.83-.81-2.93-.81-5.79-.27-5-.68-5-.68-.75-.68-1.63-.27-1.91-.68-2.11-.68-1.77-.68-3.47-.28-3-.68-3-.68-1-.68-2.31-.28-2.59-.68-2.79-.68-1.16-.68-2-.28-1.84-.68-2-.69-1.43-.69-2.72a4.27,4.27,0,0,0-.68-2.73.74.74,0,0,1-.35-1v0a.75.75,0,0,0-.31-1h0a2.82,2.82,0,0,1-.68-2c0-.88-1.22-4-2.72-6.87s-2.72-6.19-2.72-7.21-.27-2-.68-2a.83.83,0,0,1-.68-.88,4,4,0,0,0-1.36-2.18c-1.5-1.36-3.4-4.83-3.4-6.12,0-1.09-2-5-2.79-5.44a17.12,17.12,0,0,1-2-3.54c-.75-1.7-2-3.27-2.72-3.4a1.59,1.59,0,0,1-1.3-1.3,1,1,0,0,0-1-.95h0a1.72,1.72,0,0,1-1.49-1.22,7.53,7.53,0,0,0-1.57-2.18,7,7,0,0,1-1.56-2.25,1.77,1.77,0,0,0-1.5-1.15c-.55,0-1-.61-1-1.36a2,2,0,0,0-1-1.77,2,2,0,0,1-1-1.7,1.2,1.2,0,0,0-1.1-1.3,1.13,1.13,0,0,0-.26,0c-.82,0-1.36-.47-1.36-1.08,0-1.09-1.57-3-2.52-3a8.79,8.79,0,0,1-2.45-2.38,7.81,7.81,0,0,0-2.59-2.38c-.34,0-2.31-1.63-4.21-3.61a56.48,56.48,0,0,0-5.92-5.23,24.88,24.88,0,0,1-3.41-2.73,25.87,25.87,0,0,0-4.76-3c-5.44-2.72-6.67-3.47-8-4.69a3.76,3.76,0,0,0-2-1.16,4.26,4.26,0,0,1-1.9-1.36,4.49,4.49,0,0,0-2.86-1.36c-.82,0-1.57-.34-1.57-.68a.83.83,0,0,0-.88-.68,4,4,0,0,1-2.18-1.36,4,4,0,0,0-2-1.36,17.63,17.63,0,0,1-4.08-1.71,15.18,15.18,0,0,0-5.31-1.7c-1.09,0-1.91-.34-1.91-.68s-.61-.68-1.36-.68-1.36-.34-1.36-.68-.68-.68-1.49-.68a6.34,6.34,0,0,1-3.27-1.36,6.43,6.43,0,0,0-3.26-1.36,6.19,6.19,0,0,1-2.73-.68,19.63,19.63,0,0,0-5-1c-2.18-.27-4.08-.75-4.29-1.09s-1.77-.61-3.4-.61-3.2-.34-3.4-.68-1.63-.68-3.06-.68-2.86-.34-3.06-.68-2.11-.68-4.15-.68-3.68-.34-3.68-.68-2.18-.68-5.1-.68-5.1-.28-5.1-.68c0-1-1.84-.82-2.25.13-.27.68-.47.68-1.22,0C249.4,191.41,221.64,191.21,221,192.3Zm10.2,3.4c.62,1,6.26.81,6.67-.21.21-.68.61-.68,1.77,0,1,.62,4.49.89,10.55.89,5.37,0,9.32.27,9.59.68s1.9.68,3.81.68,3.33.2,3.33.48c0,1.29,4.09,2.24,9.26,2.24,3.13,0,5.85.27,6.05.68s1.29.68,2.31.68c1.91,0,5.52,1.36,5.52,2.18,0,.2,1.22.61,2.72.88a7.63,7.63,0,0,1,3.13,1.09,2.18,2.18,0,0,0,1.7.61,6.82,6.82,0,0,1,2.51.62,40.6,40.6,0,0,0,6.13,2.45c.81.27,1.49.88,1.49,1.49,0,.82.21.89.89.34s1.5-.27,3.27,1.16c3,2.45,6.53,4.15,8.57,4.15a8.71,8.71,0,0,1,5.71,2.86,3.72,3.72,0,0,0,2,1.22,3.23,3.23,0,0,1,2,1.36,3.43,3.43,0,0,0,2.38,1.36,5.22,5.22,0,0,1,3.06,1.7A5.44,5.44,0,0,0,338,227c.41,0,2,1.22,3.4,2.72s3,2.72,3.4,2.72c.89,0,6.47,5.85,6.47,6.8,0,.34,1,.68,2.24.68,1.64,0,2.38.41,2.86,1.5a5.1,5.1,0,0,0,2.11,2.18,6.15,6.15,0,0,1,2.38,2.92c.89,2.38,4,5.78,4,4.42a.68.68,0,0,1,1.36,0c0,.48,1.22,2,2.72,3.54,1.7,1.63,2.72,3.27,2.72,4.22s.34,1.63.82,1.63c1.36,0,3.94,2.86,3.94,4.43,0,.81.95,2.31,2,3.4a7.82,7.82,0,0,1,2,2.72,7.08,7.08,0,0,0,2,2.72c1.16,1.09,1.84,2.18,1.64,2.52s0,.54.34.54.75.55.75,1.23a3.18,3.18,0,0,0,1.36,2.17,3.29,3.29,0,0,1,1.36,2.18c0,.68.2,1.22.54,1.22.61,0,2.18,3.34,2.18,4.77a4.17,4.17,0,0,0,1.36,2.38,4.52,4.52,0,0,1,1.36,2.92c0,2.39,2.65,7.62,3.81,7.62s1.16.34.14,2a2.75,2.75,0,0,0-.21,2.51,12.39,12.39,0,0,1,.75,2.66,2,2,0,0,0,.89,1.56c.4.14.74,1.57.74,3.2s.34,3.2.68,3.4a4.18,4.18,0,0,1,.68,2.66,5.09,5.09,0,0,0,.62,2.79c.34.34.81,3,1,5.78.48,6.46,1,10.14,1.9,12,.41.82.62,5,.48,10-.07,4.77,0,8.64.34,8.64s.48.48.48,1-.21,1-.55,1-.41,2.44-.27,5.44c.2,3.6,0,5.78-.54,6.46A1.64,1.64,0,0,0,404,374c.27.41-.07,1.36-.75,2.11-1,1.09-1.09,1.5-.34,1.91s.68.75.13,1c-.4.27-.74,2-.74,3.81s-.28,3.47-.55,3.67a7,7,0,0,0-.68,3.27,7.61,7.61,0,0,1-.82,3.54,3.58,3.58,0,0,0-.68,2.24c0,1.16-.4,1.57-1.49,1.57s-1.3.2-.68.81c1,1,1.09,3.68.13,4.29a4.24,4.24,0,0,0-.68,2.72c0,1.29-.27,2.52-.68,2.72s-.68,1.16-.68,2.11-.34,1.63-.75,1.63-.61.48-.34,1-.2,2.11-.95,3.41a10.82,10.82,0,0,0-1.36,3.4,11,11,0,0,1-1.36,3.4,10.46,10.46,0,0,0-1.36,3.74c0,.75-.27,1.36-.61,1.36s-.75.55-1,1.16a17.34,17.34,0,0,1-2.11,3.54c-.89,1.22-1.57,2.51-1.36,2.79s-.28,1-1,1.7a4.07,4.07,0,0,0-1.37,2.38c0,1.63-2,5.51-3.13,5.92a1.56,1.56,0,0,0-1,1.36,3.55,3.55,0,0,1-1.22,2.17,7.48,7.48,0,0,0-1.7,2.32,3,3,0,0,1-1.84,1.63c-.95.27-1.36.95-1.36,2.18a3.31,3.31,0,0,1-1.36,2.65c-.75.48-1.36,1.23-1.36,1.63,0,1.16-11,12.11-12,12.11a1,1,0,0,0-.89,1,1,1,0,0,1-.95,1h0c-.55,0-1.7.95-2.59,2.1-3.54,4.63-6.19,7.42-7.07,7.42a1,1,0,0,0-1,1h0a1,1,0,0,1-.88,1,4,4,0,0,0-2.18,1.36,3.93,3.93,0,0,1-1.9,1.36,4.29,4.29,0,0,0-1.84,1.36,11.3,11.3,0,0,1-3.47,2.32,12.2,12.2,0,0,0-3.6,2.38,4.49,4.49,0,0,1-1.91,1.43,7.91,7.91,0,0,0-2.65,2,8.42,8.42,0,0,1-3.81,2.25,3.52,3.52,0,0,0-2.72,1.83c-.55,1.23-1.77,1.91-4.29,2.59a14.18,14.18,0,0,1-4,.61c-.27-.14-.95.27-1.42,1a2.72,2.72,0,0,1-1.77,1.29,4.14,4.14,0,0,0-2,1.36,4,4,0,0,1-2.45,1.36,10.8,10.8,0,0,0-3.67,1.37,11.45,11.45,0,0,1-4.42,1.36c-1.16,0-2,.27-2,.61s-1.5.81-3.4,1.09-3.54.75-3.81,1.09a4.3,4.3,0,0,1-2.66.61c-1.29,0-2.52.27-2.72.68s-1.16.68-2.11.68-1.63.27-1.63.68-1.63.68-3.68.68-3.94.27-4.15.68-1.9.68-3.74.68-3.54.27-3.74.68c-.61.95-4.15.82-5.78-.14a2.07,2.07,0,0,0-2.72,0,7.51,7.51,0,0,1-3.07.82,7.46,7.46,0,0,0-3.06.82,2.09,2.09,0,0,1-2.79-.07c-1.15-.75-1.56-.75-2,.07s-.81.75-1.9.07c-.82-.55-1.5-.62-1.77-.21s-1,.34-1.77-.2c-1.09-.68-1.43-.62-2,.2s-.82.82-1.5.14c-.41-.41-2.25-.82-4-.82s-3.47-.34-3.68-.68-1.9-.68-3.74-.68-3.47-.27-3.74-.61c-.48-.89-3.27-.68-4,.27-.41.48-.68.41-.95-.2a1.8,1.8,0,0,0-1.57-.82,2.35,2.35,0,0,1-1.7-.68c-.2-.34-1.9-.68-3.74-.68s-3.54-.34-3.74-.68a3.5,3.5,0,0,0-2.38-.68,3.39,3.39,0,0,1-2.32-.61c-.2-.34-2.78-.75-5.71-1-4.15-.4-5.51-.74-6.26-1.83a3.35,3.35,0,0,0-2.18-1.29c-.68,0-1.22-.34-1.22-.69s-1-.68-2.31-.68-2.59-.27-2.79-.68a2.18,2.18,0,0,0-1.77-.68c-1.84,0-5-1.9-8.24-4.89a4.87,4.87,0,0,0-3.06-1.23,6.72,6.72,0,0,1-3.6-1.36,6.51,6.51,0,0,0-2.45-1.36,4.14,4.14,0,0,1-2-1.36,4,4,0,0,0-2.24-1.36.63.63,0,0,1-.61-.95c.27-.69-.41-1.3-2.11-1.84-3.13-1-5.85-2.86-9.12-6.19-1.36-1.43-2.86-2.59-3.26-2.59-1,0-2.73-1.7-2.73-2.65,0-.41-.47-.75-1-.75s-1-.34-1-.68-.47-.68-1.09-.68-2.17-1.09-3.53-2.45a34,34,0,0,0-4-3.47c-.88-.61-1.56-1.29-1.56-1.7a5.53,5.53,0,0,0-1.5-2.18c-.82-.88-3.2-3.33-5.24-5.44s-3.88-3.81-4.22-3.81-.61-.48-.61-1a6.06,6.06,0,0,0-2-2.93,6.92,6.92,0,0,1-2-2.65,2.75,2.75,0,0,0-1.09-1.63,6.61,6.61,0,0,1-1.7-2.32c-.61-1.36-.88-1.77-4.08-6.8a49.14,49.14,0,0,1-2.86-5.17,10.67,10.67,0,0,0-2.11-3.27A6.62,6.62,0,0,1,95.09,432a7.72,7.72,0,0,0-1.63-3.61,12.45,12.45,0,0,1-2.31-3.47A11,11,0,0,0,89,421.58a3.68,3.68,0,0,1-1-2.45,2.65,2.65,0,0,0-.61-1.91c-.48-.34-1.57-3.74-1.7-5.51a24.4,24.4,0,0,0-1.91-4.42,19,19,0,0,1-1.9-4.9,1.88,1.88,0,0,0-.69-1.56c-.34-.21-.68-1.91-.68-3.74s-.27-3.54-.68-3.75-.68-1.15-.68-2-.27-1.83-.68-2-.68-1.9-.68-3.74-.27-3.54-.68-3.74-.34-.89.14-1.7c.68-1,.68-1.5,0-2.18a5.46,5.46,0,0,1-.82-3c0-1.23-.27-2.45-.68-2.66-1-.54-1-34.15,0-34.7.41-.2.68-1.77.68-3.4s.34-3.2.68-3.4.68-1.77.68-3.47.34-3,.68-3,.68-1,.68-2.32a4.51,4.51,0,0,1,.68-2.79,4.22,4.22,0,0,0,.68-2.72,4.26,4.26,0,0,1,.68-2.72,2.9,2.9,0,0,0,.69-2.11c0-.95.34-1.63.68-1.63s.68-1,.68-2.31a4.69,4.69,0,0,1,1-3.13c.54-.48,1-2.05,1-4,0-3.13,1.22-6.87,2.24-6.87.27,0,.48-.54.48-1.22a3.18,3.18,0,0,1,1.36-2.18,3.83,3.83,0,0,0,1.36-2.79c0-2.25,1.56-5.38,3.67-7.35,1-.88,1.5-2,1.3-2.52s.61-1.83,1.77-2.92a6.22,6.22,0,0,0,2.1-3.81c0-1,.21-1.7.55-1.7s.88-1,1.43-2.25a22.05,22.05,0,0,1,3.33-4.69c1.29-1.36,2.11-2.79,1.91-3.2a.85.85,0,0,1,.54-1.16,1.59,1.59,0,0,0,1.09-1.29c0-.48.61-1,1.36-1.22s1.36-.82,1.36-1.36.61-1.16,1.36-1.37a3.47,3.47,0,0,0,2-2,33.64,33.64,0,0,1,5.11-5.92c2.45-2.38,4.49-4.69,4.49-5.17a1.58,1.58,0,0,1,1.22-1.29,23.39,23.39,0,0,0,4.08-3.13,15.33,15.33,0,0,1,3.47-2.72c.34,0,1.23-.82,2.18-1.77a17.85,17.85,0,0,1,4.49-3.06,9.64,9.64,0,0,0,3.61-2.66,2.89,2.89,0,0,1,2.72-1.36c1.56,0,2.24-.47,3.06-2,.61-1.15,1.5-2,2-2s1-.34,1-.68.61-.68,1.36-.68,1.36-.27,1.36-.54,1.09-1,2.39-1.5,2.38-1.36,2.38-1.84.74-.88,1.63-.88a3.1,3.1,0,0,0,2.11-.68,2.86,2.86,0,0,1,2-.68,2.87,2.87,0,0,0,2-.68,3,3,0,0,1,2.11-.68c1,0,1.63-.28,1.63-.55,0-.68,6.13-3.54,7.69-3.54a1.93,1.93,0,0,0,1.5-.68c.2-.4,1.43-.68,2.58-.68a10.83,10.83,0,0,0,4.15-1,9.29,9.29,0,0,1,3.2-1c.75,0,1.29-.34,1.29-.68s1.36-.68,3-.68,3.19-.27,3.4-.61,1.56-.75,2.92-1c4.43-.62,6.6-1.3,7.9-2.38a5.14,5.14,0,0,1,5.37-.75c.68.41,1.29.34,1.57-.07s2.92-.68,6-.68,6.06-.34,6.6-.68C229.4,194.81,230.62,194.81,231.16,195.7Z" style="fill: #0034b9"/>
    <path d="M97.47,308.09c0,1.64,2.52,3.27,4.9,3.27,1.36,0,1.5.68,1.23,7.14-.07,2.25-.41,4.36-.75,4.7a6.5,6.5,0,0,0-.61,3.2c0,1.36-.28,2.79-.68,3s-.68,2.38-.68,4.76-.28,4.42-.55,4.56-.82,2-1,4.08c-.27,3.13-.2,3.95.61,3.95.62,0,1-.75,1-2.31,0-1.3.34-2.59.68-2.79s.68-1.64.68-3.07.34-2.85.68-3.06.68-2.11.68-4.15.27-3.67.61-3.67.82-2.59,1.09-5.78.75-5.92,1.09-6.2A2.22,2.22,0,0,0,107,314c0-1.49.75-1.63,1.9-.47.62.61.82.61.82.06s1.16-.88,2.59-1c1.9-.13,2.58-.54,2.72-1.56.2-1.63-3.61-3.67-4.77-2.52-.47.48-1.15.48-2,.07s-1.9-.95-2.65-1.29a15.09,15.09,0,0,0-4.76-.68C97.81,306.6,97.47,306.73,97.47,308.09Z" style="fill: #0034b9"/>
    <path d="M119.72,310.41a6.64,6.64,0,0,0-.47,3,5.87,5.87,0,0,1-.62,3.06c-.34.34-.81,2.38-1,4.42-.61,6.33-1.22,9.53-1.83,9.94-.34.2-.62,1.83-.62,3.67s-.27,3.47-.61,3.68-1,2.72-1.56,8.5c-.28,2.11,2.85,4,6.73,4.08,1.57.07,2.93.41,3.13.89.21.68.61.68,1.7.07.89-.55,1.57-.62,1.84-.21.82,1.29,2.38.68,2.38-.88,0-2.18-1.22-3.2-3.88-3.2-1.22,0-2.24-.34-2.24-.68s-1-.68-2.25-.68a5,5,0,0,1-3.74-1.57c-1.57-1.63-2-4.83-.82-5.58.41-.2.68-1.15.68-2a6.62,6.62,0,0,1,1.43-3.4c1.09-1.36,2-1.77,4-1.77,1.43,0,2.85.27,3.06.68.68,1.09,4.42.82,5.58-.41,1.9-1.9.27-3.33-4.15-3.54-2.11-.13-3.81-.47-3.81-.81s-.75-.68-1.7-.68c-2,0-2.93-1.7-1.84-3.47a8.82,8.82,0,0,0,.82-4c0-3.53,1.15-4.08,8.43-3.94,6.6.2,8.23-.55,6.26-2.72-.82-1-2.52-1.43-6.39-1.77-2.86-.27-5.86-.61-6.6-.82A2.4,2.4,0,0,0,119.72,310.41Z" style="fill: #0034b9"/>
    <path d="M142.17,314.56c-.27.2-.47,1.9-.47,3.67s-.28,3.4-.68,3.68-.82,2.24-1.09,4.49a13.53,13.53,0,0,1-1,4.42c-.27.2-.61,2.18-.61,4.35s-.28,4.22-.69,4.42-.68,1.77-.68,3.47-.27,3-.68,3-.68,1-.68,2.31-.34,2.59-.74,2.86-.14,1,1,2c1.42,1.36,2.45,1.63,5.85,1.63,2.58,0,4.08.27,4.08.75s.34.55,1-.07a3.66,3.66,0,0,0,1-2.45c0-1.49-.27-1.63-3.2-1.63-2.51,0-3.6-.41-5.1-1.84-1.91-1.83-2.52-3.6-1.22-3.6.4,0,.68-1.36.68-3s.34-3.26.68-3.47a2.86,2.86,0,0,0,.68-2,2.89,2.89,0,0,1,.68-2c.34-.2.68-2.86.68-5.78s.34-5.58.68-5.78.68-1.91.68-3.68.34-3.54.75-3.94a1.44,1.44,0,0,0,.34-1.5C143.6,314,142.79,313.88,142.17,314.56Z" style="fill: #0034b9"/>
    <path d="M179.25,323.13a5.51,5.51,0,0,0-1.49,2.72,5.52,5.52,0,0,1-.82,2.52c-1.36,2.18-.07,2.31,2,.13s6.33-3.47,6.33-1.9a4,4,0,0,0,1.36,2.11c1.84,1.63,1.84,5.85.07,7.41a13.5,13.5,0,0,0-2.45,3.54c-.61,1.3-1.36,2.32-1.77,2.32s-.95.81-1.29,1.76a4,4,0,0,1-2,2.11,2.46,2.46,0,0,0-1.63,1.64c-.2.68-.75,1.29-1.29,1.29s-2,2.38-3.4,5.31l-2.52,5.24,1.63.2c1,.14,1.7.54,1.7.88s.75.62,1.64.62,1.9.27,2.11.68,1.76.68,3.47.68c2.72,0,3-.14,3-1.7,0-1.16-.41-1.71-1.16-1.71a20.07,20.07,0,0,1-6.8-2.24c-1.63-1-.89-2.93,2.18-5.92,1.7-1.63,3.06-3.4,3.06-3.88a.9.9,0,0,1,.88-.88c1,0,5.24-6.13,5.24-7.55a6.19,6.19,0,0,1,1.36-2.66c1.7-2.17,1.84-7.82.21-9.66A13,13,0,0,1,187,323.4C185.85,321.16,181.29,321,179.25,323.13Z" style="fill: #0034b9"/>
    <path d="M199.66,327.21a5.88,5.88,0,0,0-1.49,3.74c0,1.23-.28,2.18-.68,2.18s-.68.61-.68,1.36-.28,1.36-.55,1.36-.61,1-.68,2.18a9.28,9.28,0,0,1-.88,3.74c-1.16,2.18,0,3.4,2,2.18,1.22-.82,1.63-.68,3.06.68,1.23,1.09,1.77,1.29,2,.61s.55-.75,1.43.07c1.77,1.43,1.64,9.86-.2,11.77a5.12,5.12,0,0,0-1.36,2.25c0,1.49-3.27,2.65-5.31,2-1.43-.48-1.9-1.16-2-2.86-.14-1.16-.48-2.18-.88-2.18s-.62-.61-.62-1.43-.27-1.15-.68-.95c-.95.61-.81,4,.14,5,.68.68.68,1.16.07,2.18s-.61,1.36,1.15,2.17c1.16.48,2,1.23,2,1.7,0,1.36,1.22,1.7,2.85.82,2.18-1.16,3.27-2.38,3.27-3.61,0-.61.34-1.08.68-1.08s.68-.48.68-1.09a1.71,1.71,0,0,1,1.36-1.43c1-.27,1.36-.95,1.36-2.65a4.18,4.18,0,0,1,.68-2.66c.89-.54.89-7.35.07-8.23a5,5,0,0,1-.89-2.31c-.13-1.36-.74-1.84-3.26-2.45s-3.06-1-3.27-2.52c-.13-1,.07-1.84.48-1.84s.75-1.15.88-2.58c.21-2.45.28-2.52,2.93-2.52a8,8,0,0,1,3.47.48c.95.74,2.58-1.16,2.11-2.45s-4.29-3.13-6.26-3.13A4.84,4.84,0,0,0,199.66,327.21Z" style="fill: #0034b9"/>
    <path d="M158.71,331.43c0,2.79.13,3.06,1.7,3.06s1.7-.2,1.49-2.24c-.27-2.72-1-3.88-2.24-3.88C159,328.37,158.71,329.19,158.71,331.43Z" style="fill: #0034b9"/>
    <path d="M224.09,333.47c-2.45,2.79-2.72,4.42-.75,4.42.75,0,1.36-.47,1.36-1,0-.75.89-1,3.61-1,3.19,0,3.74.21,4.56,1.77.61,1.16.74,1.91.27,2.18s-.75,1.63-.75,3.06a6.81,6.81,0,0,1-1.09,3.74,10.38,10.38,0,0,0-1.36,2.32,1.81,1.81,0,0,1-1.5,1.22,1,1,0,0,0-1,.88c0,.48-.68,1.16-1.49,1.5-1.43.68-3.13,3.06-4.63,6.26-.34.89-1.09,1.57-1.7,1.57s-1,.61-1,1.7-.27,1.7-.68,1.7-.68.61-.68,1.36-.28,1.36-.68,1.36a.81.81,0,0,0-.68.82c0,1,3.06,2.58,4.83,2.58a2,2,0,0,1,1.63.68c.2.34,1.9.68,3.81.68,3.13,0,3.33-.13,3.33-1.7,0-1.22-.34-1.7-1.36-1.7a8.1,8.1,0,0,1-4.83-2.31.53.53,0,0,0-.75,0,.46.46,0,0,0-.13.21c-.89,1.43-1.77.75-1.77-1.29,0-1.43.34-2,1.09-2,1.36,0,2.51-1.16,3.67-3.88.55-1.16,1.5-2.31,2.11-2.45s1.84-1.7,2.59-3.47,1.9-3.13,2.45-3.13,1-.61,1-1.36a6.87,6.87,0,0,1,.61-2.59c1.49-2.92,2.31-6.53,1.49-6.8-.4-.14-.74-1.16-.74-2.25s-.28-2-.68-2-.68-.47-.68-1c0-1.36-2.18-2.38-5-2.38C226.74,331.09,225.72,331.63,224.09,333.47Z" style="fill: #0034b9"/>
    <path d="M246.47,333.68c0,.47-.75.81-1.7.81a2.52,2.52,0,0,0-2.52,1.84c-.81,2.18-1,5-.34,4.9,2-.27,3.2-1,3.2-1.77s.41-.89,1.09-.61a9.89,9.89,0,0,0,2.65.4c2,0,3.61,2.45,2.45,3.61a3.44,3.44,0,0,0-.75,2.11c0,1.5-3.19,5.17-4.49,5.17a2.47,2.47,0,0,0-1.56.95c-.61.75-.41,1.36,1.09,2.86,2.79,2.93,4,5.58,3.06,6.53a5.87,5.87,0,0,0-.82,3.4c0,1.43-.27,2.59-.68,2.59s-.68.61-.68,1.36a1.22,1.22,0,0,1-1.07,1.36h-.29c-.75,0-1.36.27-1.36.68s-.75.68-1.63.68c-1.29,0-2-.68-3.2-3.13a15.94,15.94,0,0,0-2.11-3.4c-.82-.54-.61,4.35.27,6.05.41.82,1,2,1.23,2.52a2.89,2.89,0,0,0,2.11,1.23,5.72,5.72,0,0,1,2.31.88c.68.68,7.08-5.92,7.14-7.41a.83.83,0,0,1,.68-.82c.82,0,.89-9.66.07-10.61a6.38,6.38,0,0,1-1.09-2.18c-.34-1.09-.13-1.5.62-1.5s1.09-.54,1.09-1.36a10.46,10.46,0,0,1,1.36-3.74c1.63-2.93,1.63-3.88.27-7.49-.55-1.49-1.16-3.26-1.43-3.94a2,2,0,0,0-1.84-1.16,3.65,3.65,0,0,1-2.31-.81C246.68,333.06,246.47,333.06,246.47,333.68Z" style="fill: #0034b9"/>
    <path d="M275.32,339.32c-.2.41-1.09.55-1.84.34-1.56-.41-3.88,1.23-3.88,2.79,0,.48-.27.89-.61.89-.68,0-1.29,1.29-2.11,4.42-.34,1.09-1,3.74-1.56,5.78a41.3,41.3,0,0,0-1.23,8.85,27.39,27.39,0,0,1-.88,6.66,3,3,0,0,0,.14,2.93,4.9,4.9,0,0,1,.81,2.24A8.17,8.17,0,0,0,265,377c1.7,3.75,9.39,1.37,9.39-2.92,0-.82.34-1.5.68-1.5s.68-.61.68-1.36.34-1.36.68-1.36.68-.75.68-1.63a3.66,3.66,0,0,1,1-2.45c.68-.55,1-2.11,1-4.56a67.09,67.09,0,0,1,.75-8.5c.54-3.47.54-5,0-5.52a6.57,6.57,0,0,1-.75-3.53c0-1.91-.41-3.13-1.36-3.95C276.14,338.37,275.93,338.3,275.32,339.32Zm2,8.64c.82.75,1.16,2,1.16,4.7,0,2-.27,3.6-.68,3.6s-.68,1-.68,2.32-.27,2.58-.68,2.79-.68,1.77-.68,3.47-.27,3-.68,3-.68.75-.68,1.56c0,2.93-4.77,6.13-7.28,4.9-1.16-.54-1.57-1.29-1.57-3.13a5.62,5.62,0,0,1,.89-3.26c.68-.75.68-.95,0-1.23-1-.41-1.16-4-.21-4.62.41-.21.68-2.25.68-4.43s.34-4.21.75-4.42a1.12,1.12,0,0,0,.34-1.36c-.41-1.16,2-4.35,3.95-5.1a5.28,5.28,0,0,1,5.37,1.22Z" style="fill: #0034b9"/>
    <path d="M290.22,342.93c-.88.41-1.57,1.16-1.57,1.7a4,4,0,0,1-1.15,2,8.32,8.32,0,0,0-2.93,6.12c0,1.16-.27,2.25-.68,2.45a2.7,2.7,0,0,0-.68,2,3.72,3.72,0,0,1-.47,2,6.24,6.24,0,0,0-.28,3.19,6.2,6.2,0,0,1-.68,3.75c-.61.75-.61,2,.07,6.05a22.61,22.61,0,0,1,.48,6.06c-.68,1.63,2.38,4.49,4.76,4.49s4.22-1.84,5.72-5.31c.54-1.16,1.15-2.18,1.42-2.18s.55-.61.55-1.36.34-1.36.68-1.36.68-1,.68-2.31.34-2.59.68-2.79.68-1.7.68-3.33a9,9,0,0,1,.41-3.34c1.22-1.15,1.22-11.36,0-13.27a2.37,2.37,0,0,1,0-1.7,3.3,3.3,0,0,0-.41-2.45C296.68,341.77,292.94,341.57,290.22,342.93Zm4.83,5.1a3.62,3.62,0,0,1,1.09,2.52,2.78,2.78,0,0,0,.68,2c.41.21.68,1.16.68,2.11s-.27,1.63-.68,1.63-.68,1.64-.68,3.68-.27,3.94-.68,4.15-.68,1.49-.68,2.79-.27,2.31-.68,2.31-.68,1-.75,2.18c-.07,3.4-2,6.19-4.7,6.73-3.12.68-4.08.14-4.08-2.17,0-1.09-.27-2-.68-2s-.68-1.56-.68-3.4c0-3.26.89-5.92,2.38-6.94.48-.34.41-.95-.13-1.84s-.62-1.49-.21-1.76a2.55,2.55,0,0,0,.68-2,4.39,4.39,0,0,1,1.36-2.79,2.63,2.63,0,0,0,1.09-2.17c-.41-1,.48-3,2.25-5.11,1-1.29,2.79-1.29,4.42.07Z" style="fill: #0034b9"/>
    <path d="M315.73,349c-2,1.09-2.58,1.84-2.58,3.2a4.23,4.23,0,0,1-.82,2.59c-1.5,1.49-.07,1.56,2.45.13,3.27-1.83,5.85-1.83,5.85,0,0,.82.48,1.36,1.09,1.36.88,0,1,.48.68,2-.61,3.13-2.52,5.31-4.83,5.58-1.77.21-2,.55-2.25,2.38s.07,2.25.89,2.25c.54,0,1.29.68,1.63,1.56a6.56,6.56,0,0,0,1.7,2.45c1.16,1,1.5,4.49.48,5.11a5.27,5.27,0,0,0-.95,2.38c-.75,3.67-7.56,5.58-9.6,2.65-.54-.81-.88-1.7-.61-2.11.41-.75-1.16-3.88-2-3.88-.27,0-.55,1.09-.55,2.39s.34,2.38.68,2.38.68.61.68,1.29a1.94,1.94,0,0,0,.89,1.7c.68.34.68.48,0,.82-1.43.68-1,1.43,1.56,2.65,2.25,1,2.59,1,4.77,0,1.29-.61,2.31-1.36,2.31-1.63a7.53,7.53,0,0,1,1.5-2.45c1.7-2.18,1.9-2.93,2.38-9.46.2-2.86.07-4.9-.41-5.37a2.67,2.67,0,0,1,.15-3.77l.12-.11c1.91-1.57,3.06-5,3.06-9,0-3.61-.2-4.29-2.17-6.4C319.34,347.08,319.14,347.08,315.73,349Z" style="fill: #0034b9"/>
    <path d="M154,352.79c-1,1.91-.95,3.81.27,4.83,1.64,1.36,3.88-1,3.61-3.67S155.17,350.62,154,352.79Z" style="fill: #0034b9"/>
    <path d="M330.84,353.47c0,1.77,1.43,2.79,4.56,3.2,4.69.61,5.64.95,5.64,1.91a3,3,0,0,1-1,1.77,10.91,10.91,0,0,0-2.18,3.33,17.43,17.43,0,0,1-2.38,3.74,4.64,4.64,0,0,0-1.22,2.45,3,3,0,0,1-.82,1.91c-.47.47-.54.81-.2.81s0,.61-.68,1.36a9.08,9.08,0,0,0-1.5,4.36,7.57,7.57,0,0,1-1.63,4.22,5,5,0,0,0-1.29,3.47c0,1.22-.28,2.24-.68,2.24s-.68.48-.68,1c0,1.43.61,1.29,2.1-.48a5.48,5.48,0,0,0,1.3-3.33,3.42,3.42,0,0,1,.68-2.31,2.89,2.89,0,0,0,.68-2,2.86,2.86,0,0,1,.68-2,2.41,2.41,0,0,0,.68-1.77,5.07,5.07,0,0,1,1.36-2.79,5.41,5.41,0,0,0,1.36-3,2.48,2.48,0,0,1,.54-1.77,18.15,18.15,0,0,0,2.39-3.94A21.68,21.68,0,0,1,342.4,360a5.56,5.56,0,0,0,2-4.22c0-1.91-.2-2.25-1.63-2.25a3,3,0,0,1-2.11-.68c-.2-.34-2.51-.68-5.17-.68C331.38,352.18,330.84,352.32,330.84,353.47Z" style="fill: #0034b9"/>
    <path d="M362.13,358.3a8.83,8.83,0,0,1-2,.89,4.69,4.69,0,0,0-2,2.24c-.54,1.09-1.16,2.52-1.5,3.13-.95,1.84-.75,2.59.75,2.59a1.21,1.21,0,0,0,1.36-1,1.13,1.13,0,0,0,0-.26,6.78,6.78,0,0,1,1.43-3.07c1.36-1.7,1.57-1.76,2.52-.81s.95,1.22.27,1.9c-.88.89-1.09,3.27-.27,3.27.27,0,.81-.68,1.15-1.5,1.09-2.45,2.39-2.31,2.39.27a5.25,5.25,0,0,0,.81,3.13c.61.62.61,1.23,0,2.52a9.54,9.54,0,0,0-.81,3.61,4.35,4.35,0,0,1-.82,2.72c-.61.61-.61.82,0,.82a.94.94,0,0,1,.82,1c0,.54-.28,1-.62,1s-.74,1.29-1,2.85a29.22,29.22,0,0,1-2,6.13c-1.43,3.13-1.56,3.26-4.56,3.26-2.65,0-3.2-.27-3.88-1.83-1-2.18-1.15-7-.2-7,.41,0,.68-1.23.68-2.66s.34-2.92.68-3.12.68-1.91.68-3.81.34-3.34.68-3.34.68-.47.68-1.09-.48-.95-1.5-.81c-1.29.13-1.49.54-1.36,2.38a3.29,3.29,0,0,1-.47,2.51,1.1,1.1,0,0,0-.27,1.43,5.35,5.35,0,0,1-.41,2.93c-1.3,3.13-1.5,11.84-.41,14a9.76,9.76,0,0,1,1,2.79c0,1.23,3.74,2.39,6.12,1.91,1.36-.27,2-.82,2-1.63a2.2,2.2,0,0,1,.68-1.64c.41-.2.68-1.09.68-1.9a8,8,0,0,1,1.37-3.54,8.68,8.68,0,0,0,1.36-3.95c0-1,.27-1.83.61-1.83s.75-1,.95-2.25c1.16-6.6,1.63-9.05,1.84-9.66a4.87,4.87,0,0,0-.27-2.24,2.66,2.66,0,0,1,.27-2.52,1.33,1.33,0,0,0,.13-1.91,6.33,6.33,0,0,1-.95-2.45,4.67,4.67,0,0,0-2.24-2.85C364.24,357.56,363.56,357.49,362.13,358.3Z" style="fill: #0034b9"/>
    <path d="M375.88,362.59c-.75.89-.55,1.23,1.09,2.38a10.59,10.59,0,0,0,5,1.63c2.72.21,3,.41,3.2,2,.14,1.08-.07,1.9-.48,1.9s-.74.48-.74,1a1.05,1.05,0,0,1-1,1c-.54,0-1,.61-1,1.36s-.27,1.36-.54,1.36-1.36,1.77-2.38,3.95a22.69,22.69,0,0,1-2.79,4.83,4.77,4.77,0,0,0-1.09,3.2c0,1.22-.27,2.38-.61,2.58s-.82,1.7-1.09,3.34a10.41,10.41,0,0,1-1.22,3.74c-1.16,1.43.06,1.84,1.56.48a4.93,4.93,0,0,0,1.36-3.54c0-1.23.34-2.25.68-2.25s.68-.95.68-2a12.19,12.19,0,0,1,1.84-5,22.37,22.37,0,0,0,1.9-3.19,16.7,16.7,0,0,1,3.81-8,26.34,26.34,0,0,0,3.81-5.38c1.57-3.13,1.57-3.26.34-4.49C386.35,361.77,377.1,361,375.88,362.59Z" style="fill: #0034b9"/>
    <path d="M406.36,199.44c-.62.68-.62,1-.07,1,1.29,0,.82,1.16-.61,1.57-.75.2-1.3.61-1.23.95.21.61-3.54,5.85-4.56,6.26-.34.13-3.6,3.06-7.14,6.46-7.55,7.21-8.57,7.89-12.25,7.89-2.17,0-2.72.28-2.72,1.23,0,4.08,6.06,10,8,7.89a3.45,3.45,0,0,0,.82-1.77A3,3,0,0,1,388,229a3.25,3.25,0,0,0,1.36-2.18,1.14,1.14,0,0,1,1-1.23,1,1,0,0,0,1-1,1.22,1.22,0,0,1,1.29-1,1.81,1.81,0,0,0,1.57-.68c.34-1.15,3.94,1,7,4,1.57,1.7,3.27,2.79,4.22,2.79s1.57.27,1.57.68c0,.88,3.2.88,3.74,0,.34-.55.75-.55,1.29-.07s1.23.34,2.11-.61a4.09,4.09,0,0,1,2-1.36c.41,0,1.91-1.16,3.41-2.52,2.58-2.38,2.58-2.45,2.24-6.53-.2-2.25-.61-4.29-.95-4.49a19.34,19.34,0,0,1-2.31-3.95c-1-1.9-2.05-3.61-2.52-3.61s-1.09-.61-1.29-1.36-.62-1.36-.89-1.36-.68-.68-.82-1.56a3.37,3.37,0,0,0-1.7-2.18c-.88-.34-1.56-1-1.56-1.5C409.76,198.08,407.38,198.22,406.36,199.44Zm7.69,10.89a11.43,11.43,0,0,0,2.1,3.6c1,1.09,1.16,1.7.62,2a3.31,3.31,0,0,0-1,2.18,3.49,3.49,0,0,1-1.76,2.38,2.48,2.48,0,0,0-1.57,2.18c0,1-.68,1.84-2.18,2.52-2.65,1.15-4.83,1-6.46-.41a9.78,9.78,0,0,0-2.38-1.43c-.95-.34-1.23-1.23-1.23-3.88,0-2.92.21-3.54,1.57-4.15,3.54-1.63,5.24-2.79,5.24-3.61a2.94,2.94,0,0,1,1.09-1.83c.88-.68,1.15-.68,1.7.13.34.55.61.75.68.41s.2-.81.27-1.15a9.64,9.64,0,0,1,.27-1.09C411.32,207.06,413.5,208.56,414.05,210.33ZM420,216a1.27,1.27,0,0,1-.68,1.09c-.34.2-.68-.07-.68-.61s.34-1.09.68-1.09a.62.62,0,0,1,.68.57Z" style="fill: #0034b9"/>
    <path d="M54.13,221.82c-.88.41-1.56,1-1.56,1.23s-.41.54-.88.54a5.12,5.12,0,0,0-2.45,1.64c-1.43,1.49-1.57,2.24-1.36,6.66.2,4.09.61,5.45,2,7.15.95,1.22,2.18,2.17,2.79,2.17,1.43.07,2.11-3.06,1-4.21a8.65,8.65,0,0,1-1.22-3.54c-.41-2.45-.21-2.93,2-5.24s3-2.59,5.3-2.59c3.54,0,6.13,1.23,9.19,4.43,1.22,1.29,2.72,2.38,3.2,2.38a1,1,0,0,1,.88.95c0,.54.82,1.43,1.91,1.91,1.49.74,1.9,1.42,2,3.87.2,3-1.09,6.67-2.86,8.17a11.2,11.2,0,0,1-4.76.81c-3.41.07-3.81.21-3.81,1.57A2.65,2.65,0,0,0,67.2,252c1,.41,1.7.55,1.7.21,0-.68,3.47-.48,4.62.2s2.11,0,2.86-2c.34-.89,1.09-1.63,1.7-1.63a1,1,0,0,0,1-.89,7.57,7.57,0,0,1,2-2.86c1.37-1.29,1.84-2.17,1.37-2.65a5.45,5.45,0,0,1-.68-2.86c0-1.15-.28-2.45-.69-2.65a1.93,1.93,0,0,1-.68-1.36c0-1.23-6-7.82-7.14-7.82a7.9,7.9,0,0,1-2.72-2.05,5.46,5.46,0,0,0-4.15-2,4.12,4.12,0,0,1-2.65-.68c-.21-.34-1.91-.68-3.68-.68a9.89,9.89,0,0,1-3.81-.54A2.53,2.53,0,0,0,54.13,221.82Z" style="fill: #0034b9"/>
    <path d="M38.62,246.05c-.54.88,4,5.44,5.38,5.44.61,0,1.09.27,1.09.68a.83.83,0,0,0,.88.68,3.94,3.94,0,0,1,2.18,1.36A4.49,4.49,0,0,0,51,255.57a5.78,5.78,0,0,1,3.34,1.7,5.46,5.46,0,0,0,3,1.7A1.93,1.93,0,0,1,59,260.4c.41,1.23.82,1.36,3,1,1.49-.2,2.11-.13,1.49.21-1.49.95.68,2.78,3.34,2.78,1.9,0,2.11-.2,1.9-1.9a3.24,3.24,0,0,0-1.7-2.52c-.88-.34-1.56-.88-1.56-1.15s-.62-.55-1.36-.55-1.36-.34-1.36-.68a.77.77,0,0,0-.82-.68,6.28,6.28,0,0,1-2.59-1.36,6,6,0,0,0-2.65-1.36,4.29,4.29,0,0,1-2.25-1.09c-1.22-1.16-5-3.33-9.52-5.51-1.43-.68-2.59-1.43-2.59-1.7C42.36,245.09,39.1,245.23,38.62,246.05Z" style="fill: #0034b9"/>
    <path d="M432.89,251.28a3.34,3.34,0,0,1-1.36,2.25,3.47,3.47,0,0,0-1.36,2.45,4.37,4.37,0,0,1-1.36,2.65c-1.09,1-1.5,1.09-2.45.34s-1.16-.75-1.63-.07-.68.68-1,.14a3.11,3.11,0,0,0-2.24-.75h-1.84l1.5,1.36a5.07,5.07,0,0,1,1.5,3.06c0,.89.27,1.7.61,1.84s.75,1.36,1,2.72c.41,2.11.27,2.59-.61,2.59s-1,.68-1,2.38c0,2.18.13,2.31,1.36,1.7.74-.34,2-1,2.72-1.36,1.84-.95,2.65-.89,3.81.34a4.13,4.13,0,0,0,2.38,1c.82,0,1.84.88,2.52,2s1.36,2,1.7,2c.81,0,.54-6-.34-7.48-1.3-2,1.49-4.49,7.21-6.4,1.84-.61.07-2.45-2.45-2.45-2.93,0-5.31-1.83-5.31-4.15,0-1.09-.27-2-.61-2s-.75-1.16-.88-2.52C434.59,250.54,432.89,249,432.89,251.28Z" style="fill: #0034b9"/>
    <path d="M40.53,262.85c-1.84,3.88-2,4.63-1.16,5.44a4.26,4.26,0,0,0,3.13.75c1.77-.13,2.38-.61,2.93-2.24a10.37,10.37,0,0,1,1.83-3.34c1.84-2,1.57-3.81-.47-3.81-1,0-1.7-.34-1.7-.68s-.55-.68-1.16-.68C43.11,258.36,42,259.86,40.53,262.85Z" style="fill: #0034b9"/>
    <path d="M27.4,270.06c0,2,3.13,5,5.44,5.38,1.5.2,1.7.61,1.9,3.19.14,1.64-.13,3.34-.47,3.68a3.76,3.76,0,0,0-.75,2.31c0,.89-.27,1.57-.61,1.57s-.75.61-1,1.36c-.27,1.15-1,1.36-5.64,1.49-5,.21-5.38.34-5.58,1.7s.07,1.57,1.84,1.57c1.15,0,2.11.27,2.11.68s1.9.68,4.42.68c2.79,0,4.42.27,4.42.75s.34.47,1.09-.14a1.76,1.76,0,0,1,2.38-.07c.82.55,1.29.62,1.29.14s2.45-.68,7.15-.61c3.94.07,7.14.41,7.14.75s1.09-.14,2.38-1c1.84-1.22,2.38-2,2.38-3.67s-.41-2.18-2.38-3c-1.29-.55-2.38-1.36-2.38-1.84a1.66,1.66,0,0,0-1.16-1.36,12.07,12.07,0,0,1-2.92-2,6.92,6.92,0,0,0-2.25-1.57c-.34,0-1.77-1.22-3.2-2.72s-2.92-2.72-3.33-2.72c-.75,0-1.63-.68-5.85-4.29C30.93,267.88,27.4,267.75,27.4,270.06Zm17.69,14.29c0,.54.74,1.29,1.7,1.7,2.24,1,2.24,2.86.06,2.86-1,0-1.9.27-2.1.68-.68,1.09-3.88.81-5.24-.48a5,5,0,0,1-1.23-3.4v-2.25h3.4C44.07,283.46,45.09,283.74,45.09,284.35Z" style="fill: #0034b9"/>
    <path d="M18.08,298.23a4,4,0,0,1-.28,2.58c-.34.34-.61,3.95-.74,8-.21,6.94-.14,7.28,1.15,7.15,1-.07,1.29.2,1.23,1.22s.61,1.7,2.85,2.79c1.77.89,3.27,1.23,3.47.82s.82-.27,1.36.2c.75.62,1.23.62,1.77.07a3.23,3.23,0,0,1,2-.82,1.57,1.57,0,0,0,1.49-.88c.28-.54,1-.07,2.32,1.36,1.77,2,2.24,2.18,6.53,2.31,3.88.14,4.83-.06,6.26-1.36,2-1.7,3.19-4.22,3.47-7.55.13-1.29.54-2.45,1-2.58s.68-1.77.68-3.68c0-2.79-.2-3.47-1.36-3.74-.75-.2-1.36-.61-1.36-.88s-1.63-.75-3.54-1c-8.16-.81-15.24-1.9-16.33-2.51a8.56,8.56,0,0,0-3.2-.62,3.63,3.63,0,0,1-2.45-.68,3.5,3.5,0,0,0-2.38-.68,3.54,3.54,0,0,1-2.38-.68C18.76,295.71,17.8,296.46,18.08,298.23Zm10.34,5a3.12,3.12,0,0,0,2.17.68c1.64,0,1.71.13,1.36,2.85-.81,6.6-2,9-5.17,10.21-1.29.47-1.83.34-2.24-.48a2.07,2.07,0,0,0-1.36-1c-2,0-3.68-6.73-1.91-7.82.41-.21.68-1.16.68-2a2.86,2.86,0,0,1,1.23-2.32C24.68,302.38,27.87,302.31,28.42,303.2ZM43,307.28c.75,0,1.71.88,2.25,2,1,1.84,1,2.11,0,2.58s-.88.75.14,1.77,1.15,1.23-.28,2.18a3.45,3.45,0,0,0-1.42,2c0,1.57-1.84,1.91-4.43.68-1.77-.81-2.38-1.56-2.38-2.79,0-.88-.27-1.83-.68-2s-.68-1.36-.68-2.45c0-1.5.41-2.18,1.63-2.65a5.37,5.37,0,0,0,2.11-1.36,1.36,1.36,0,0,1,1.5-.41A7.77,7.77,0,0,0,43,307.28Z" style="fill: #0034b9"/>
    <path d="M37.6,312c0,.34.48.68,1,.68s1-.34,1-.68-.47-.68-1-.68S37.6,311.63,37.6,312Z" style="fill: #0034b9"/>
    <path d="M437,299.11c-5.1.62-6.32,1.16-7.34,3.27-1.3,2.79-1,8.57.54,11.36a11.33,11.33,0,0,1,1.36,4.42c0,1.5.34,2,1.23,2,1.49,0,4.89,1.5,4.89,2.18a.63.63,0,0,0,.68.55c.41,0,.68-.75.68-1.64,0-2,1.09-2.85,2.39-1.77.81.68,1.56.55,3.53-.4a16.08,16.08,0,0,1,5.17-1.36,8.42,8.42,0,0,0,3.41-.82,17.32,17.32,0,0,1,4.83-1.09c4.42-.48,5.85-1.29,5.85-3.2,0-1.7-2.32-1.7-6,.07a13.51,13.51,0,0,1-4.56,1.36c-.95,0-1.7.34-1.7.75,0,1.43-1.56.14-1.84-1.5-.06-.88-.4-3.06-.61-4.9s-.68-3.19-1-3.19-.61-.41-.61-.89c0-1.09-2.52-3.47-4.22-4.08-.68-.27-1.22-.75-1.22-1.16a.69.69,0,0,0-.79-.55h0C441.12,298.64,439,298.84,437,299.11Zm4.49,4.15c.28.55.62.55,1.16,0,1.16-1.15,1.84-.88,1.84.55a2.46,2.46,0,0,0,.61,1.77,1.8,1.8,0,0,1,.68,1.56c0,.61.2,2.79.48,4.7.4,3.33.34,3.6-1,3.6a10.65,10.65,0,0,0-3.87,1.36c-3.13,1.77-5.79,1.77-6.26.07a2.52,2.52,0,0,0-1.57-1.63c-1-.27-1.29-1.16-1.5-5.17-.2-5.24.21-6.19,2.66-6.19.88,0,1.56-.34,1.56-.68C436.29,302.24,440.85,302.31,441.46,303.26Z" style="fill: #0034b9"/>
    <path d="M13.79,327.28c-2.79,4.15-2.72,7,.2,9.66s4.83,3.68,6.88,3.68c.95,0,1.9.27,2.1.68s1.43.68,2.73.68,2.51.27,2.72.68,2.51.68,5,.68,4.9.34,5.38.81c.61.62,1,.62,1.63,0a5.21,5.21,0,0,1,3.06-.81c2,0,2.25-.21,2.25-1.7s-.28-1.71-2.59-1.71a6.43,6.43,0,0,1-3.26-.68c-.35-.34-3-.74-5.79-.81s-5.3-.27-5.71-.55a10.72,10.72,0,0,0-3.4-.95c-6.88-1.09-7.15-1.22-7.15-2.52,0-.68-.34-1.29-.75-1.29-1.09,0-.41-3.74.75-3.88,5-.61,6.12-1,6.12-2.11,0-1.42-2.92-2.85-5.91-2.85C16.24,324.29,15.56,324.76,13.79,327.28Z" style="fill: #0034b9"/>
    <path d="M453,333.81c-.2.34-3.13.68-6.53.68-3.61,0-6.05.27-6.05.68s-.62.68-1.37.68-1.36.27-1.36.68a.8.8,0,0,1-.81.68c-2,0-3.61,8.1-1.84,9.19a1.14,1.14,0,0,1,.34,1.36c-.34.95,1.63,3.06,2.86,3.06a6.14,6.14,0,0,1,2.18.82c1,.68,1.49.68,2.1.07s1.09-.62,2.18,0,1.43.61,1.63-.07a3.29,3.29,0,0,1,2.52-.82,4.91,4.91,0,0,0,3.47-1.36,4,4,0,0,1,2.31-1.36c.75,0,.82-.2.28-.75s-.41-1.09.68-2c1.36-1.09,1.43-1.36.54-2.72-.61-1.09-.68-1.63-.2-1.84s.54-.61,0-1.5a1.68,1.68,0,0,1,.07-2.31c1.36-1.63,3.81-1.29,6,.89,1.7,1.63,2,2.38,1.7,4.55a8.14,8.14,0,0,1-1.63,4.15,2.79,2.79,0,0,0-.95,2.59c1.36,3.61,7-.54,7.28-5.44.27-5.58.07-6.47-1.63-6.47a4.44,4.44,0,0,1-2.86-1.36,4.91,4.91,0,0,0-3.47-1.36,4.18,4.18,0,0,1-2.66-.68,3.5,3.5,0,0,0-2.38-.68C454.25,333.13,453.17,333.4,453,333.81Zm-6.46,4.76c0,.34.68.68,1.5.68a4.46,4.46,0,0,1,2.72,1.16c1.56,1.43,1.63,4.83.06,5.44a14.11,14.11,0,0,0-3.06,2.32c-2.72,2.51-6.6,2.11-9.86-1.23-1.91-1.83-2-4.08-.34-5.58a7.44,7.44,0,0,0,1.7-2.31c.34-.88,1.22-1.16,3.88-1.16C444.93,337.89,446.5,338.17,446.5,338.57Z" style="fill: #0034b9"/>
    <path d="M20.59,348.37c0,1.29-.27,2.59-.68,2.79s-.68,1.29-.68,2.38c0,2.52,3,4.15,6.47,3.61,2.31-.34,3.19-1.84,1.56-2.45-.68-.21-.68-.61,0-1.77,1.09-1.91,1-2.59-.61-4.9a3.88,3.88,0,0,0-3.74-2C20.73,346.06,20.59,346.19,20.59,348.37Z" style="fill: #0034b9"/>
    <path d="M454.87,357.22a16.52,16.52,0,0,0-2.79,2c-1.43,1.29-2.38,1.43-4.08.54-3.54-1.77-10.35-2.85-10.35-1.56,0,.27-.68.81-1.49,1.16-1.09.47-1.7,1.7-2.25,4.21-.75,3.2-.68,3.68.41,4.7a4.26,4.26,0,0,1,1.29,2.79c0,1.49.21,1.56,4.7,1.56,2.65,0,5-.34,5.17-.68a2.93,2.93,0,0,1,2.11-.68c1,0,1.63-.34,1.63-.68,0-1.43,1.29-.61,2.18,1.36.68,1.63,1.29,2,2.92,2a4.83,4.83,0,0,1,2.93.82c.61.61,1,.61,1.63,0a3.48,3.48,0,0,1,2.25-.82c2.24,0,7.14-5.92,7.14-8.71,0-2-1.56-4.83-2.86-5.17a1.49,1.49,0,0,1-1.22-1.36c0-.81-.68-1.09-3.06-1.09-1.7,0-3.07-.34-3.07-.68C458.06,356.06,456.77,356.2,454.87,357.22Zm-10.21,3.26a2.93,2.93,0,0,1,1.84,2.25,3.52,3.52,0,0,0,.81,2.24c.62.61.48,1.09-.47,2.18-1.84,2-6,3.88-6.33,2.86a1.55,1.55,0,0,0-1.5-.82c-1.49,0-2.38-1.09-3-3.61-.34-1.36-.2-1.83.61-1.83a1.05,1.05,0,0,0,1-1c0-2.79,3.47-3.88,7-2.25Zm12.59,0c.61.61.81.61.81,0,0-1.43,3.13-.88,4.77.89,4.28,4.55.47,10.68-6.53,10.41-3.2-.07-5.52-1.77-4.83-3.54a1.15,1.15,0,0,0-.21-1.43c-1.16-.68-.75-3.47.75-5.38s3.88-2.31,5.24-.95Z" style="fill: #0034b9"/>
    <path d="M29,361c-.34.34-3.2.74-6.26.88s-6,.61-6.46,1.09a3.2,3.2,0,0,1-2,.75c-.74,0-1.22.47-1.22,1.36s-.27,1.36-.68,1.36-.68,2-.68,4.76c0,4.63.07,4.83,1.9,5.44a32.26,32.26,0,0,1,3,1.37,11.5,11.5,0,0,0,4.15.68,7.14,7.14,0,0,1,3.67.74c.55.55.89.55,1.16,0,.27-.4,2.11-.74,4.15-.74s3.88-.34,4.08-.68a1.67,1.67,0,0,1,1.77-.35c.75.28,1.29.14,1.29-.27s.68-.75,1.57-.75a6.62,6.62,0,0,0,3.53-2,7.45,7.45,0,0,1,2.86-2c1.29,0,1.16-6.46-.2-8.5-.89-1.36-1.84-1.7-5.79-2.11-2.58-.27-4.89-.75-5.1-1C33.32,360.14,29.85,360.21,29,361Zm-3,4.76c0,.34,1.22.68,2.65.68s2.92-.34,3.13-.68c.54-.89,3.54-.89,4.08,0,.27.41.89.34,1.77-.21,1.22-.68,1.56-.54,3.06,1.23a7.27,7.27,0,0,1,1.63,3c0,1.43-2.72,4.15-4.15,4.15-1.63,0-4.69,1.43-4.69,2.18,0,.27-.88.54-2,.54s-2-.34-2-.68-1.91-.68-4.36-.68-4.62-.34-4.83-.68-1.63-.68-3.13-.68c-3.13,0-3.67-.81-2.85-4.15.61-2.17.81-2.31,4.69-2.85a23.49,23.49,0,0,0,5-1.16C25.36,365,26,365,26,365.79Z" style="fill: #0034b9"/>
    <path d="M438.61,378.78c-.21.41-1.09.55-1.84.34-1-.27-2,.21-3.33,1.43-1.64,1.57-1.91,2.38-1.91,5.65,0,4.08,1,5.65,4.76,7.28,3.95,1.63,5.45,2.52,5.45,3.06,0,1,2.85.55,4-.68a18.65,18.65,0,0,1,3.81-2.52c2.65-1.36,2.72-1.49,2.93-5.44.13-2.24.47-4.35.81-4.69.82-.82,6.87,2.24,7.28,3.67.21.54.68,1.7,1,2.52.82,1.63-.2,3.6-1.77,3.6-.88,0-3.81,2.79-3.81,3.61s3.41.48,5.38-.55a4.45,4.45,0,0,0,2.79-4.49,6.15,6.15,0,0,1,.88-2.72c.68-1.15.68-1.56,0-1.77a1.63,1.63,0,0,1-.88-1.42c0-.69-1.16-1.64-2.93-2.45-1.56-.68-3.4-1.5-4-1.84a8.55,8.55,0,0,0-3.2-.61,3.61,3.61,0,0,1-2.45-.68c-.2-.34-2.52-.68-5.1-.68s-4.9-.34-5.1-.68a1.75,1.75,0,0,0-2.47-.27A1.67,1.67,0,0,0,438.61,378.78Zm7.41,2.11c1,.48,1.84,1.43,1.84,2s.34,1.23.68,1.23c1.16,0,.75,3.54-.54,4.69a8.33,8.33,0,0,0-1.71,2.25c-.81,2.38-8.3,2.52-9.59.2a8.7,8.7,0,0,0-1.9-2.24,3.48,3.48,0,0,1-1.23-2.52c0-2.11,3-5.1,5.1-5.1a2.9,2.9,0,0,0,2.05-.68c.54-1,3.13-.89,5.3.13Z" style="fill: #0034b9"/>
    <path d="M40.05,383.41c-.54.82,1,1.9,3,2.25,1.3.13,1.77.68,1.91,2.24a7.23,7.23,0,0,0,.88,2.79c.34.48-.27,1.56-1.76,3-2,2-2.59,2.18-3.88,1.5a14.33,14.33,0,0,0-2.93-.95,5.77,5.77,0,0,1-2.72-2.38,4.07,4.07,0,0,0-2.72-2.18c-.95-.07-1.09.14-.55.48s.68,1,0,2.38c-.4,1-1.22,1.83-1.63,1.83a.9.9,0,0,0-.88.89c0,1.63-2.45,3.2-5,3.2-3.74,0-6-2.52-5.71-6.33.2-2.52.41-2.86,2.17-3.2,2.25-.41,3.54-2,2.93-3.67s-3.27-1.36-3.67.27c-.21.75-.75,1.36-1.16,1.36A5,5,0,0,0,16,388.44c-2.79,3-1.36,12.39,2,13.2.75.21,1.29.55,1.29.82,0,.61,7.28.54,7.89-.14a3.9,3.9,0,0,1,2.11-.47c1,0,1.57-.41,1.57-1,0-1.5,4.76-3.34,6.26-2.45,1.77,1.09,5,.88,6-.27a2.88,2.88,0,0,1,1.64-1c1.56,0,3.81-3.13,3.81-5.31a3.84,3.84,0,0,1,.68-2.52c.34-.2-.14-1.7-1.36-3.47-1.91-2.65-2.38-3-4.77-3C41.62,382.8,40.26,383.07,40.05,383.41Z" style="fill: #0034b9"/>
    <path d="M428.81,403.68c0,1.37,1.9,3.61,3.06,3.61.34,0,3.61,3.06,7.21,6.8s7.08,6.81,7.62,6.81a2.91,2.91,0,0,0,2.52-2.72c0-1.57,1.77-5,3.33-6.4a4.22,4.22,0,0,1,3.07-.95c2.31.27,2.38-.89,0-2.18a9.84,9.84,0,0,1-3-3.06c-1.36-2.45-2.72-2.93-3.2-1.09-.4,1.57-.95,1.77-2,.75-.34-.34-2.65-.68-5-.75s-4.77-.34-5.17-.68a15.51,15.51,0,0,0-4.56-1C429.15,402.39,428.81,402.46,428.81,403.68Zm8.44,3.41a4.32,4.32,0,0,0,2.31.61c5.65.13,6.39.27,6.73,1.63.21.75.62,1.36,1,1.36.88,0,.75,1.43-.21,3.61-1.15,2.45-3.74,2.52-4.62.13-.34-.95-1.16-1.7-1.7-1.7a1.72,1.72,0,0,1-1.5-1.22c-.68-1.7-2-2.86-3.2-2.86s-1.43-.82-.61-1.56a1.15,1.15,0,0,1,1.61-.23A1.25,1.25,0,0,1,437.25,407.09Z" style="fill: #0034b9"/>
    <path d="M28.21,406.75c-.95.95-1.09,3.67-.2,4.21.34.21.48,1,.34,1.64-.34,1.09,2.58,4.9,3.74,4.9,1.36,0,2.59-2.52,2.45-5.11-.34-4.56-1.36-6.46-3.61-6.46A4.43,4.43,0,0,0,28.21,406.75Z" style="fill: #0034b9"/>
    <path d="M46.51,417.16c.21.81,1.16,1.49,2.66,1.9,3,.75,6.12,3.67,6.12,5.72,0,.88-.27,1.56-.68,1.56s-.68.48-.68,1.09c0,2-2.18,2.92-7.28,3-2.65,0-5.1-.34-5.31-.68a2.86,2.86,0,0,0-2-.68,2.88,2.88,0,0,1-2.38-1.36,2.63,2.63,0,0,0-2-1.36,2.79,2.79,0,0,1-1.7-.48c-.82-.81-5.45-2.24-7.35-2.24a2.91,2.91,0,0,0-2.31.82c-.68,1-.34,5.78.4,7.28a12.5,12.5,0,0,1,1,2.92,7.94,7.94,0,0,0,1.43,2.86,3.35,3.35,0,0,1,1,1.7c0,.41.61.75,1.29.75,1.63,0,2.65-2.66,1.36-3.47-.82-.55-.75-.75.07-1.36s.81-.82.2-1.09-.88-1-.88-1.91-.27-1.83-.68-2c-1.5-.95-.68-2.38,1.36-2.38,1.15,0,2,.34,2,.82,0,1.29,3.26,2.58,6.26,2.58,1.43,0,2.58.21,2.58.48,0,1.63,6.94,3,7.83,1.56.2-.4,1.49-.68,2.72-.68,1.56,0,2.58-.4,3-1.22a8.62,8.62,0,0,1,3.06-2.52c2.39-1.29,3.2-2.38,1.77-2.38-.34,0-.68-1.36-.68-3,0-2-.34-3.13-1-3.4a1.65,1.65,0,0,1-1-1.43,1.21,1.21,0,0,0-1.29-1,2.42,2.42,0,0,1-1.77-.68c-.54-.89-4.22-.89-4.76,0-.34.54-.82.47-1.5-.14C46.45,416,46.31,416.07,46.51,417.16Z" style="fill: #0034b9"/>
    <path d="M422.69,426.14c0,.88.34,1.56.68,1.56s.68.55.68,1.29c0,1.16.81,3.13,2.24,5.38.75,1.09,2.52-.14,2.52-1.84,0-1.22,3.2-3,3.81-2a2.77,2.77,0,0,0,2,.61c.95,0,1.63.28,1.63.68s1,.68,2.25.68a5,5,0,0,1,3.54,1.36,4.88,4.88,0,0,0,3.13,1.37c1,0,2.1.27,2.31.68.88,1.49,5.1.27,5.1-1.43,0-.28-1.36-.68-3.06-1-3-.4-8.57-2.85-9.05-3.94-.13-.27-1.16-.48-2.24-.48s-2-.34-2-.68-1-.68-2.31-.68-2.59-.34-2.79-.68a2.87,2.87,0,0,0-2-.68,2.68,2.68,0,0,1-2-.61,4.31,4.31,0,0,0-2.45-.89C423,424.57,422.69,424.78,422.69,426.14Z" style="fill: #0034b9"/>
    <path d="M55,437.23a3.5,3.5,0,0,1-2.38.68c-1.09,0-2.18.27-2.38.68s-1.29.68-2.38.68c-2.18,0-9.6,3.67-10.41,5.17a2,2,0,0,1-1.5.95,1.07,1.07,0,0,0-1,1.09c0,.54-1,1.84-2.11,2.86l-2.11,1.77,1.43,1.15a4.07,4.07,0,0,1,1.43,2.45c0,1.7,2.45,4.29,4.08,4.29a2.07,2.07,0,0,1,1.7.68,3.54,3.54,0,0,0,2.38.68,3.55,3.55,0,0,0,2.39-.68,2.92,2.92,0,0,1,2.1-.68,10.53,10.53,0,0,0,4.36-1.7,10.71,10.71,0,0,1,3.94-1.7c.69,0,2.39-1.23,3.81-2.66s3.47-2.79,4.43-2.92a1.88,1.88,0,0,0,2-1.91,5.68,5.68,0,0,1,.88-2.38c1.23-1.22.62-4.49-1.22-6.87-1.7-2.11-2.25-2.31-5.44-2.31C57,436.55,55.16,436.82,55,437.23Zm6.12,4.35,1.64,1.63-1.5,3c-1.16,2.45-2.24,3.4-5.24,4.9-2,1-4.83,2.45-6.12,3.13a11.88,11.88,0,0,1-4.22,1.36,2.67,2.67,0,0,0-2.11.81c-.27.68-.48.68-1.22,0a4.1,4.1,0,0,0-2.18-.81,3.83,3.83,0,0,1-3.2-3.27c0-.61.48-.75,1.36-.48s1.36.14,1.36-.27-.61-.75-1.36-.75a1.22,1.22,0,0,1-1.36-1.07,1.4,1.4,0,0,1,0-.29c0-.75.41-1.36.95-1.36a3,3,0,0,0,1.77-1A11.12,11.12,0,0,1,43,445c1.36-.61,3-1.36,3.6-1.7a6,6,0,0,1,2.11-.61,4,4,0,0,0,2.18-1.36C52.77,439.2,58.9,439.4,61.07,441.58Z" style="fill: #0034b9"/>
    <path d="M415.07,442.12c-1.43.82-2.59,1.91-2.59,2.39a1,1,0,0,1-1,.88c-.61,0-1,.41-.95.82a4.44,4.44,0,0,1-.34,2c-.34.75.2,1.84,1.56,3.4,1.16,1.23,2.11,2.79,2.11,3.47,0,1.16,2.11,2.72,4.08,3,7.15,1.08,8.3,1.08,11.16,0s3-1.16,3-4.43c0-3.81.41-4.83,2.05-4.83s6.26,4.36,6.26,5.92a3.63,3.63,0,0,0,.81,2.11c.61.61.68,1,.14,1.36a4.47,4.47,0,0,0-1.16,1.63,1.73,1.73,0,0,1-1.36,1.23c-1.56,0-5.31,2.11-4.9,2.79.61.88,4.49.75,6.67-.27,1.43-.62,1.84-1.3,1.84-3,0-1.15.4-2.24.88-2.45.68-.27.68-.47,0-1.22a4.72,4.72,0,0,1-.95-2.65c-.07-2.73-2.18-5.79-4.22-6-1-.14-1.84-.55-1.84-.89s-.75-.61-1.56-.61a4.51,4.51,0,0,1-2.86-1.36,4.17,4.17,0,0,0-2-1.36,2.9,2.9,0,0,1-1.7-1,4.79,4.79,0,0,0-3.13-1,4,4,0,0,1-2.65-.68C421.6,440.15,417.72,440.56,415.07,442.12Zm6,1.3a2.72,2.72,0,0,0,2,.61,2.93,2.93,0,0,1,2.38,1.36,2.7,2.7,0,0,0,2,1.36c1.16,0,1.36.48,1.36,3.68s-.27,3.87-1.77,5.1c-3.13,2.45-8.37.88-10.21-3.13a12.25,12.25,0,0,0-1.9-3.06c-.54-.34-.48-1,.14-1.91a7.25,7.25,0,0,0,.81-2.92c0-1.3.34-1.57,2.38-1.64,1.3-.06,2.59.21,2.79.55Z" style="fill: #0034b9"/>
    <path d="M63.52,457.91c-.54.68-.61,1.09-.06,1.43.34.2.68.2.68-.07s.74.2,1.63,1c1.09,1,1.77,1.29,2.11.82A.83.83,0,0,1,69,460.7c.81.54-1.36,3.74-2.52,3.74-.55,0-1,.27-1,.68s-.55.68-1.16.68a5.63,5.63,0,0,0-2.86,2,4.29,4.29,0,0,1-3.81,2,4.84,4.84,0,0,0-3.4,1.36,3.92,3.92,0,0,1-2.18,1.37.89.89,0,0,0-.88.88c0,.48-.68,1.16-1.5,1.5-1.83.81-2,2.31-.34,3.33,1.36.82,5.85-1.16,10-4.49a9.64,9.64,0,0,1,3.2-1.91c.48,0,1.84-1.08,3.13-2.38s2.79-2.38,3.47-2.38,1.09-.34,1.09-.68.54-.68,1.22-.68c1.77,0,4.9-1.56,4.9-2.45a3,3,0,0,1,1-1.63c1.77-1.5,1.09-2-2.38-2-1.84,0-3.4-.34-3.4-.68s-1.29-.68-2.93-.68a7.45,7.45,0,0,1-3.6-.68C64.54,457.09,64.07,457.23,63.52,457.91Z" style="fill: #0034b9"/>
    <path d="M404.66,463a.82.82,0,0,0,.34,1.09c.34.2.68,1.77.68,3.47s.34,3,.68,3,.68.62.68,1.36c0,2.11,1,1.64,2-1,1.09-2.85,2.65-3.06,4.83-.68a5.85,5.85,0,0,0,2.52,1.7.76.76,0,0,1,.81.69c0,.34.55.68,1.16.68,2,0,7.62,3,7.89,4.21a1.94,1.94,0,0,0,2,1.23,3.92,3.92,0,0,1,2.45.81c.41.41,1,.62,1.3.34.54-.61-2.45-3.87-3.54-3.87a3.72,3.72,0,0,1-2-1.3,6.75,6.75,0,0,0-3.2-1.76,4.94,4.94,0,0,1-2.32-1.09,2,2,0,0,0-1.49-.62c-1.7,0-5-2.72-5-4.15a1.16,1.16,0,0,0-1-1.28h-.2c-1.5,0-5.38-1.84-5.92-2.79a1.83,1.83,0,0,0-2.57-.16Z" style="fill: #0034b9"/>
    <path d="M76.38,473.08a25.17,25.17,0,0,0-4.22,3.47c-3.53,3.4-4.15,5.78-2.24,9a23.12,23.12,0,0,1,1.43,2.86c.27.82,1.15,1.22,2.72,1.22a4.62,4.62,0,0,1,2.58.55c.62.95-3.33,4.28-4.49,3.88a1.27,1.27,0,0,0-1.56.27,2.59,2.59,0,0,1-2,.75c-.89,0-1.7.34-1.84.75-.27.74-.68.61-3.88-1.23-.13-.14.14-.61.62-1.22.74-.89.61-1.23-.62-2.32s-1.36-1.49-.68-2.65a3.24,3.24,0,0,0,.41-2.45c-.41-1.09-.54-1.09-2.18,0s-1.76,1.43-1.49,6.19.34,5.1,2.11,6.06c3.4,1.7,8.36,1.22,13.74-1.43a28.11,28.11,0,0,0,6.39-4.08A5.43,5.43,0,0,1,83.46,491c.68,0,1.5-1.15,4.22-5.57A18.37,18.37,0,0,1,89.51,483c1.3-1.43,1.5-3.88.48-4.56a2.38,2.38,0,0,1-.68-1.77c0-2.59-2.65-3.95-7.48-3.95A26.89,26.89,0,0,0,76.38,473.08Zm6.81,2.25c0,.34.74.68,1.63.68,2.24,0,3.13,1.29,2.52,3.74-1.09,4.08-1.64,5.1-2.73,5.1a6.15,6.15,0,0,0-2.78,1.36c-1.16,1-2.79,1.36-5.24,1.36H73v-3.4c0-1.9.27-3.4.61-3.4.55,0,1.43-2,1.7-3.67,0-.41,1.64-1,3.47-1.5C83.32,474.51,83.19,474.58,83.19,475.33Z" style="fill: #0034b9"/>
    <path d="M394,490c-1,1.09-1,1.3.34,3.06,1.71,2.39,3.13,2.45,4.77.28.95-1.3,1-2,.47-3.07C398.67,488.59,395.54,488.46,394,490Z" style="fill: #0034b9"/>
    <path d="M375.81,495.4c-3.4,1.83-4.15,2.72-4.15,5.1a4.31,4.31,0,0,1-.82,2.59c-.68.68-.68,1.15,0,2.17a11.06,11.06,0,0,1,.82,4.29c0,2.11.41,3.33,1.36,4.22.68.61,1.29,1.36,1.22,1.63-.2,1.16,1.57,4.15,2.52,4.15a1,1,0,0,1,1,.88c0,.55.82,1.37,1.77,1.84a8.46,8.46,0,0,1,2.72,2.86,2.93,2.93,0,0,0,2.52,1.9,3.74,3.74,0,0,1,2.38.82c.61.61.82.61.82,0s1.09-.82,2.79-.82c2.31,0,3.19-.47,5.51-2.72,1.56-1.49,3.2-2.72,3.67-2.72a1.61,1.61,0,0,0,1.23-1.09c.68-1.83.47-9.66-.34-10.13a8.93,8.93,0,0,1-1.5-2.25c-.75-1.7-.82-1.56-1,1.9-.21,4.36-1.36,8.71-2.79,10.41s-5,3.34-5.85,2.52a7.37,7.37,0,0,0-3.54-.68c-2.59,0-3-.27-4.29-2.45a6.71,6.71,0,0,0-2.79-2.79,1.82,1.82,0,0,1-1.36-1.77,7,7,0,0,0-2.11-3.6c-1.77-1.84-2.11-2.72-2.11-5.51a11.2,11.2,0,0,1,1.5-5.85c1.36-2.32,1.77-2.52,4.42-2.52,1.64,0,3.2.27,3.4.68.69,1.09,2.73.82,3.95-.55,1.57-1.7,1.5-2-.88-3.19C383.22,493.29,379.35,493.56,375.81,495.4Z" style="fill: #0034b9"/>
    <path d="M102.37,497.3a19,19,0,0,0-2.86,3.34,7.63,7.63,0,0,1-1.7,2.31,6.37,6.37,0,0,0-1.7,3.4c0,1-.41,1.63-1.09,1.63s-2,.89-3,2a6.5,6.5,0,0,1-2.65,2.05.68.68,0,0,0-.75.6h0a14.18,14.18,0,0,1-2.72,3.4c-1.5,1.57-2.72,3.33-2.72,4,0,1.3,5.58,7.15,8.23,8.64,3.2,1.84,6.26,3.07,7.48,3.07,2.86,0,8.1-4.22,8.1-6.53a2.66,2.66,0,0,1,.68-2c.41-.2.68-1.77.68-3.47,0-2.52.2-3,1.36-3,.75,0,1.36-.34,1.36-.68a.84.84,0,0,1,.89-.68c1.29,0,3-2,3.53-4.29.28-1,.75-1.84,1.09-1.84,1,0,.68-3.19-.54-5.37-.68-1.16-1.43-2.11-1.7-2.11s-.55-.61-.55-1.36a1.22,1.22,0,0,0-1.07-1.36h-.29a1.22,1.22,0,0,1-1.36-1.07,1.4,1.4,0,0,1,0-.29,1.21,1.21,0,0,0-1-1.36h-.26c-.75,0-1.43-.27-1.57-.61a2.94,2.94,0,0,0-1.56-1C105.57,494.51,104.55,495.06,102.37,497.3Zm5,3.54a3.52,3.52,0,0,0,2.11,1.7,5.17,5.17,0,0,1,2.58,1.7c2.11,2,2.31,6.4.55,8-2.66,2.25-9.05,2-9.05-.47a1.06,1.06,0,0,0-1.09-1c-1.7,0-3-1.77-3-4,0-1.56.75-2.72,2.93-4.76a17.77,17.77,0,0,1,3.33-2.79C106.05,499.14,106.79,499.89,107.41,500.84Zm-5.92,14.22c3.06,3.13,3.54,4,3.33,5.85s-.61,2.38-2.58,3.06c-1.3.48-2.39,1.23-2.39,1.7a1.34,1.34,0,0,1-.81,1.16c-.48.2-.89,0-.89-.41s-.68-.75-1.42-.75c-2.11,0-7.83-5.44-7.49-7.14.07-.75.48-1.5.82-1.57s.61-.81.61-1.56c0-.95.48-1.29,1.77-1.29s1.9-.41,2.11-1.36C95.16,510.37,97.61,511.18,101.49,515.06Z" style="fill: #0034b9"/>
    <path d="M81.83,497.1c0,.34-.48.68-1,.68-1.29,0-2.51,2.31-2,3.88S83.93,508,85,508a.86.86,0,0,1,.89.75c0,.55.34.55,1-.07a3.31,3.31,0,0,0,1-2,1.78,1.78,0,0,1,.88-1.56c.62-.21.62-.68-.2-2.18-1.29-2.52-3.68-5.1-4.7-5.1a.75.75,0,0,1-.74-.68.65.65,0,0,0-.6-.68h-.08A.67.67,0,0,0,81.83,497.1Z" style="fill: #0034b9"/>
    <path d="M407.92,502.2c-.41.95-.47,1.7-.13,1.7s.61.55.61,1.16a2.82,2.82,0,0,0,1.63,2c1.43.68,1.91.55,3.06-.68,2.66-2.86,1.43-5.85-2.24-5.85A2.77,2.77,0,0,0,407.92,502.2Z" style="fill: #0034b9"/>
    <path d="M353.9,511.18a2.86,2.86,0,0,0,0,1.09c.07.34-.54.75-1.29,1s-1.36.82-1.36,1.3-.27,1-.68,1-.68.88-.68,2-.27,2.25-.68,2.45c-.82.48-1,8.5-.14,8.5.27,0,.89,1,1.43,2.18a16.54,16.54,0,0,0,2.31,3.74c.75.89,1.23,1.57,1,1.57-1.16,0,3,5.85,5,6.87a25,25,0,0,1,3.34,2.25c.81.74,2.51,1.08,5.17,1.08,5,0,7.62-1.83,10.13-6.94,1.77-3.53,2.39-8.3,1.09-9a2.38,2.38,0,0,1-.68-1.77c0-.68-.2-1.3-.41-1.3-1.15,0-2.24,2.66-2.31,5.51,0,2.59-.34,3.41-2.18,5.11-2.79,2.45-4.9,3.67-6.53,3.67-2,0-5.58-2-5.58-3.13a.91.91,0,0,0-.88-1h0c-.48,0-1.36-1.23-2-2.72a6.36,6.36,0,0,0-2.86-3.4c-1.36-.55-1.7-1.09-1.7-3.07,0-1.29-.27-2.38-.68-2.38s-.68-1.09-.68-2.38.34-2.38.68-2.38.68-.95.68-2c0-1.84.2-2,2-2,1.16,0,2-.34,2-.68s.75-.68,1.63-.68,1.91-.34,2.11-.75,1-.2,2,.75c1.64,1.56,3.75,1.63,4.22.2.21-.47-.47-1.15-1.36-1.49a7.1,7.1,0,0,1-2.18-1.37c-.2-.4-2-.74-4.08-.74s-3.88-.34-4.08-.68C355.19,510.57,354,510.5,353.9,511.18Z" style="fill: #0034b9"/>
    <path d="M131.83,517.51a2.69,2.69,0,0,1-2,.68,3.52,3.52,0,0,0-2.11.61c-.41.41-2.18.75-4,.89-4.22.27-5.24,1.9-1.16,1.9,2.65,0,3.6.75,2.11,1.7a3.75,3.75,0,0,0-.68,2.45,5.7,5.7,0,0,1-1.77,3.81,13.49,13.49,0,0,0-2.72,4.08c-.55,1.23-1.43,2.25-2,2.25a1.07,1.07,0,0,0-1,1.09,3.85,3.85,0,0,1-1.29,2.24c-1.7,1.5-2.52,4.49-1.36,5.24.48.27.95.21,1.16-.27a1.16,1.16,0,0,1,1.09-.82c1.08,0,3.19-2.45,4.49-5.1a11.89,11.89,0,0,1,1.42-2.38,46,46,0,0,0,2.86-4.08,25.83,25.83,0,0,1,3.47-4.7,12.27,12.27,0,0,0,2.25-3.4,38.4,38.4,0,0,1,2.31-4.22c1.16-1.63,1.09-2.65-.14-2.65A1.29,1.29,0,0,0,131.83,517.51Z" style="fill: #0034b9"/>
    <path d="M142,526.29a5.44,5.44,0,0,1-2,.88,2.1,2.1,0,0,0-1.56,2c-.2,1.77-.2,1.77,2.31,1.09a10.64,10.64,0,0,0,3.27-1.29,4.23,4.23,0,0,1,2.38-.62c1.36,0,2.11.62,3.2,2.59l1.49,2.52-3.06,3.26c-3.06,3.2-4.69,4-5.17,2.38-.41-1.15-2.58-.13-2.58,1.16a3.54,3.54,0,0,0,1,2.11c1.63,1.63,1.9,4.08.95,7.42-.61,2-1.29,3.06-2,3.06a10.16,10.16,0,0,0-3.34,1.09c-2,1.08-2.24,1.08-2.85,0a2.17,2.17,0,0,0-1.57-1.09c-1.22,0-1.29-.82-.2-1.91.61-.61.61-.81,0-.81s-.82-1-.82-2.32c0-2.79-1.22-3.81-2.52-2.11-1.63,2.32-.47,9.19,1.57,9.19.48,0,1,.61,1.16,1.36a1.85,1.85,0,0,0,1.63,1.36,3.39,3.39,0,0,1,2,.75c.54.54.88.54,1.16,0a2.9,2.9,0,0,1,2.17-.75c.89,0,1.64-.34,1.64-.68s.47-.68,1-.68c1.49,0,4.62-3.27,4.22-4.42-.21-.48.2-1.43.88-2,1.29-1.16,1.63-5.79.48-6.54s0-2.44,2-2.92c2.58-.68,4.28-2.31,4.28-4.22a2.1,2.1,0,0,1,.89-1.84c.68-.27.68-.47,0-1.22a4.06,4.06,0,0,1-.89-2.45,5.46,5.46,0,0,0-1.7-3.27c-1.29-1.36-2.31-1.7-5.3-1.7C144.28,525.67,142.38,526,142,526.29Z" style="fill: #0034b9"/>
    <path d="M331.65,526.49a3.46,3.46,0,0,0-.81,2.24,3.51,3.51,0,0,1-.75,2.18c-1.09,1.09,1,5.58,3,6.26a13,13,0,0,0,4.22.27c2.38-.27,2.93-.61,3.67-2.45.48-1.22,1.16-2.72,1.5-3.4C344.31,528.26,334.44,523.7,331.65,526.49Zm7.83,3.81a3,3,0,0,1-2.79,4.08c-2.25.27-3.81-.88-3.81-2.86s.95-2.85,3.74-2.92C338.66,528.53,339.07,528.8,339.48,530.3Z" style="fill: #0034b9"/>
    <path d="M322.33,533.16a1.68,1.68,0,0,0,.34,1.7,3,3,0,0,1,.41,2.58,2.63,2.63,0,0,0,.95,2.86,3.85,3.85,0,0,1,1.36,2.18.85.85,0,0,0,.68.88c.41,0,.69.89.69,2s.2,2.1.54,2.24c.82.34,3.54,6.06,3.54,7.42,0,.68-.34,1.29-.68,1.29-2,0-8.92-4.49-12.25-7.82a26.08,26.08,0,0,0-4.22-3.75,14.65,14.65,0,0,1-3.06-2.38c-3.13-2.86-5.65-3.2-5.65-.75a2.93,2.93,0,0,0,.68,2.11,3.47,3.47,0,0,1,.68,2.32,5,5,0,0,0,1.36,3.13,4.38,4.38,0,0,1,1.37,2.72,4.34,4.34,0,0,0,1.36,2.72,4.37,4.37,0,0,1,1.36,2.79,2.42,2.42,0,0,0,.75,2,1.14,1.14,0,0,1,.34,1.36,2.62,2.62,0,0,0,1,2.11,4,4,0,0,1,1.29,2.31c0,2.11,2.11,5.45,3.47,5.45s1.77-2,.48-3.27c-.48-.47-.62-.82-.35-.82s-.13-1.08-.88-2.38a10.46,10.46,0,0,1-1.36-3.74c0-.75-.27-1.36-.54-1.36s-1.3-1.43-2.18-3.26-1.77-3.75-2.11-4.36c-.89-1.77-.75-2.58.41-2.58.54,0,1,.27,1,.68s.68.68,1.56.68a3.78,3.78,0,0,1,2.32.74,10,10,0,0,0,2.38,1.57,5.73,5.73,0,0,1,2.24,2.31c.34.82,1,1.5,1.43,1.5a6.33,6.33,0,0,1,2.38,1.77,21.92,21.92,0,0,0,4.22,3.4c1.36.88,2.52,2.11,2.52,2.65,0,1.43,2.72,1.3,3.81-.2s1.22-3.54.27-3.54c-.34,0-.68-.61-.68-1.29a2,2,0,0,0-.54-1.57c-.75-.27-4.9-9-4.9-10.34a1.8,1.8,0,0,0-.75-1.43,1.2,1.2,0,0,1-.34-1.42,3.1,3.1,0,0,0-.21-2.18c-.34-.61-1.49-3-2.51-5.17C324.37,532.89,323.22,531.8,322.33,533.16Z" style="fill: #0034b9"/>
    <path d="M177.35,539.35a2.18,2.18,0,0,1-1.7.61c-1.43,0-3.34,1.5-3.34,2.52a8.57,8.57,0,0,1-2,2.58c-2.92,2.79-4.28,5.72-3.26,6.94.54.68.54,1.16,0,1.7a3.71,3.71,0,0,0-.82,2.32,2.86,2.86,0,0,1-.54,1.9,4.43,4.43,0,0,0-.68,2.59,10.14,10.14,0,0,1-1,3.74c-.68,1.29-.54,1.77.68,2.86a4.34,4.34,0,0,1,1.5,1.9,5.16,5.16,0,0,0,1.56,2.11c1.23,1.16,2.45,1.5,5,1.5,3,0,3.68-.27,5.24-2a7,7,0,0,0,1.84-3.06c0-.55.34-1,.68-1s.68-.61.68-1.29a16,16,0,0,1,1.43-4.28c.75-1.64,1.7-3.41,1.9-3.95.89-1.84.89-11.57,0-13.47S178,538.26,177.35,539.35Zm3.33,3.47c1.7.81,1.84,1.15,1.84,5.78,0,2.79-.34,5.1-.75,5.38a1.55,1.55,0,0,0-.41,1.7,2.1,2.1,0,0,1-.61,2,1.22,1.22,0,0,0-.54,1.43c.68,1.09-1.77,5.37-3.54,6a2.3,2.3,0,0,0-1.64,2.39c0,1.56-.27,1.7-2.85,1.7-4,0-5.31-1.43-5.31-5.58,0-1.77.34-3.27.68-3.27s.68-.75.68-1.63a3.06,3.06,0,0,1,.68-2.11,2,2,0,0,0,.68-1.7c0-1.36,2.72-7,3.61-7.35a1.52,1.52,0,0,0,.47-1.29c0-1,1-2.11,3.07-3.4,1.76-1,1.76-1,3.94-.07Z" style="fill: #0034b9"/>
    <path d="M290.08,553.23c0,5,.34,9.39.68,9.59s.41.75-.06,1.29-.55,1,0,1.36c.95.62.88,5.31-.14,6.33-.68.68-.68,1.16,0,2.18a8.33,8.33,0,0,1,.82,3.4c0,1.7.27,2,1.7,2,1.7,0,1.7-.07,1.7-5.71,0-4-.27-5.85-.82-6s-.54-.68.34-1.5c1.16-1.15,1-3.67-.2-4.49-.27-.2-.55-3.67-.55-7.82-.06-4.49-.34-7.55-.81-7.69a1.39,1.39,0,0,1-.68-1.22,1,1,0,0,0-1-1h0C290.15,544,290,545.4,290.08,553.23Z" style="fill: #0034b9"/>
    <path d="M194.9,547.1c-1.7.89-4.22,5-4.22,6.94a5.53,5.53,0,0,1-1.49,2.73c-1.3,1.36-1.36,1.83-.68,2.92.47.82.54,1.43.13,1.7a3.21,3.21,0,0,0-.68,2.32,5,5,0,0,1-.81,2.72c-.69.75-.69,1,0,1.22.47.21.81,1.5.81,3.2a6.94,6.94,0,0,0,.75,3.61c.54.54.54.88,0,1.22-.82.48.68,2.38,1.9,2.38.41,0,1,.61,1.43,1.36,1,1.77,3.88,1.77,6.13,0a7.56,7.56,0,0,1,2.24-1.36c1,0,2.52-1.9,2.52-3,0-.61.54-1.09,1.36-1.09,1.22,0,1.29-.21.54-1.36s-.68-1.5,0-2.18c1.09-1.09,1-4.9,0-6.8a25.77,25.77,0,0,0-6.6-6.53c-1.15-.68-1.76-.75-2.31-.21a3.17,3.17,0,0,1-2,.75c-1.77,0-1.63-3.47.13-4.63.75-.47,1.37-1.22,1.37-1.7a5.28,5.28,0,0,1,1.7-2.51l1.7-1.64,2.51,1.36a5.58,5.58,0,0,1,2.93,3c.54,2.38,3.4,2.79,3.4.54a3.94,3.94,0,0,0-.81-2.45c-.48-.47-.55-.81-.21-.81s0-.62-.68-1.37c-1-1.08-2-1.36-5.37-1.29A17.41,17.41,0,0,0,194.9,547.1Zm5.51,15.58c1.36,2.59,1.7,6.94.68,8a1.88,1.88,0,0,0-.41,1.76c.41,1-2.51,4.29-3.74,4.29-1.43,0-4.83-2.18-5.85-3.74-2.31-3.54-.54-10.55,2.72-10.55.89,0,1.64-.41,1.64-.88s.74-.95,2-.95c1.43,0,2.18.54,3,2.1Z" style="fill: #0034b9"/>
    <path d="M217.56,548.33c-2.18,1.36-3.06,2.38-3.06,3.47,0,.61-.28,1.09-.68,1.09s-.69,1-.69,2.24a5.46,5.46,0,0,1-.81,3.06c-.61.62-.95,3.95-1.09,10.35-.2,8.23-.14,9.52.75,9.52.61,0,1.15.75,1.29,1.84.21,2,4.49,5,5.24,3.67a5.18,5.18,0,0,1,2.79-.88c1.56-.14,2.58-.68,3.06-1.64a14.75,14.75,0,0,1,1.7-2.65,3.57,3.57,0,0,0,.82-2.45,1.69,1.69,0,0,1,.54-1.63c.34-.21.68-1.91.68-3.74s.27-3.47.62-3.75c.68-.4.54-2.65-.28-4.69a1.32,1.32,0,0,1,.34-1.77c.68-.41.75-.81.21-1.5a8.86,8.86,0,0,1-1.09-3.53c-.41-2.79-2.11-5.17-3.68-5.17-.47,0-.88-.62-.88-1.36,0-1.09-.41-1.37-2.18-1.3A9.14,9.14,0,0,0,217.56,548.33Zm4.42,3.2c0,.34.61.68,1.36.68a1.19,1.19,0,0,1,1.35,1,.76.76,0,0,1,0,.26,2.38,2.38,0,0,0,.68,1.77c1.23.75.75,2.18-.82,2.58s-1.42.48-.27,1.77c.82.89,1.36,2.86,1.57,5.79.34,4.21.27,4.49-1.16,5-1,.41-1.29.75-.82,1.09,1.64,1,.82,3.54-2,6.33l-2.92,2.79-2-1.16c-1.77-1-2-1.63-2.25-4.35-.13-1.77-.47-3.2-.88-3.2-1,0-.75-6.67.2-6.94.48-.21.75-1.57.61-3.74-.06-1.91.21-3.68.62-4a2.81,2.81,0,0,0,.68-2.11c0-1,.4-1.63.88-1.63a4,4,0,0,0,2.18-1.36C220.21,550.78,222,550.37,222,551.53Z" style="fill: #0034b9"/>
    <path d="M239.19,550.44c-2,.95-2.92,1.9-2.92,2.79a4.25,4.25,0,0,1-1.36,2.58c-1.23,1-1.36,1.91-1.3,9,.07,4.29.34,7.83.68,7.83s.62,1.22.62,2.72.34,2.72.68,2.72.68.68.68,1.57c0,2.31,2.58,4.42,5.78,4.55,5.65.34,6.46.14,6.46-1.7,0-1,.34-1.7.68-1.7s.68-.75.68-1.63a3.08,3.08,0,0,1,.68-2.11c.34-.2.69-1.7.69-3.33a6.54,6.54,0,0,1,.81-3.68c.61-.61.61-1,0-1.63s-.81-3-.81-6.4c0-3.13-.28-5.85-.69-6s-.68-1.29-.68-2.45-.34-2-.88-2a4,4,0,0,1-2.18-1.36C245.25,548.47,242.87,548.53,239.19,550.44Zm5.65,4.49c1.43,0,1.63.34,1.63,2.24a5,5,0,0,0,1.36,3.54c1.16,1.09,1.36,2,1.3,7.42-.07,7.21-1.64,11.77-4.56,13.2-.95.47-1.91.54-2.11.2a3.22,3.22,0,0,0-2.11-.82c-1.5-.27-1.7-.61-1.91-3.67a13.76,13.76,0,0,0-.74-4.08c-.62-1-.34-11.77.47-14.29.34-1.29,1-2,1.7-2a1.1,1.1,0,0,0,1.16-1.23c0-1,.34-1.22,1.09-1A10.41,10.41,0,0,0,244.84,554.93Z" style="fill: #0034b9"/>
    <path d="M255,549.69c-2.59,3.13-2.59,3.13-1.36,4.29.81.81,1.29.95,1.9.34.89-.89,11.36-1,11.36-.14a1.27,1.27,0,0,1-.68,1.09,3.73,3.73,0,0,0-.68,2.45c0,1.09-.41,2.18-1,2.38s-.88.88-.61,1.77a5.78,5.78,0,0,1-.34,3.13c-1.09,2.58-2,15.92-1.23,16.94a2.68,2.68,0,0,0,1.91.88c1.22,0,1.29-.61,1.29-8.09,0-4.7.27-8.3.68-8.58a2.61,2.61,0,0,0,.68-2,9.55,9.55,0,0,1,1-3.54,9.59,9.59,0,0,0,1-3.47,2.65,2.65,0,0,1,.68-1.9c.55-.34.55-.75,0-1.36s-.4-1.16.75-2,1.36-1.23.62-2.11c-1-1.23-5.52-1.36-6.74-.21-.75.68-1,.68-1.22,0-.41-1-3.34-1.09-4-.07-.27.55-.61.55-1.16,0A1.75,1.75,0,0,0,255,549.69Z" style="fill: #0034b9"/>
    <path d="M151.56,551.46c-.54,1.84.14,3.13,2.25,4.15,1,.48,2.38,1.09,3,1.43,2.52,1.29,3.81.75,4.08-1.77.21-1.84,0-2.38-.81-2.38a4,4,0,0,1-2.38-1.36C156.05,549.76,152.17,549.69,151.56,551.46Z" style="fill: #0034b9"/>
  </g>
</svg>
