<?xml version="1.0" encoding="utf-8"?>
<!-- Generator: Adobe Illustrator 25.4.0, SVG Export Plug-In . SVG Version: 6.00 Build 0)  -->
<svg version="1.1" id="Calque_1" xmlns="http://www.w3.org/2000/svg" xmlns:xlink="http://www.w3.org/1999/xlink" x="0px" y="0px"
	 viewBox="0 0 2481 565" style="enable-background:new 0 0 2481 565;" xml:space="preserve">
<style type="text/css">
	.st0{fill:#25377A;}
	.st1{fill:#BE1823;}
	.st2{fill:#2F3482;}
</style>
<g transform="translate(0.000000,565.000000) scale(0.100000,-0.100000)">
	<path class="st0" d="M8359,5566c-395-316-724-815-848-1286c-57-217-65-284-65-545c-1-209,2-257,23-370c42-235,116-462,225-690
		c393-818,1057-1265,1986-1334c132-10,411-20,1100-41c190-6,482-16,650-23c441-18,567-16,608,6c37,20,67,64,82,118
		c6,20,15,182,20,360s20,581,32,894c28,751,30,1239,5,1388c-90,536-308,968-672,1333c-71,72-172,163-223,202l-94,72H9826H8464
		L8359,5566z M10788,3858c-3-305-4-325-24-368c-12-25-39-62-60-82c-63-60-100-68-318-68c-135,0-210-5-255-15
		c-175-42-330-184-387-355c-27-81-24-225,5-309c53-153,165-267,318-324c82-30,263-31,344,0c75,27,170,93,211,144
		c155,196,270,254,485,247c106-4,105-3,73-135c-85-346-352-614-705-709c-57-15-104-19-250-18c-170,0-185,2-265,28
		c-275,91-501,290-607,537c-63,145-76,215-76,399c0,138,3,178,21,245c71,260,266,498,507,617c155,77,258,98,487,98h168v195v195h166
		h165L10788,3858z"/>
	<path class="st1" d="M13595,3340c-95-39-98-192-4-242c66-35,146-12,181,53c49,92-14,200-117,198C13633,3349,13606,3345,13595,3340z
		"/>
	<path class="st1" d="M14802,3330c-84-51-78-176,11-230c87-54,197,14,197,121c0,42-34,98-70,116C14903,3356,14839,3353,14802,3330z"
		/>
	<path class="st1" d="M13140,3126v-195l-49,34c-67,44-133,59-245,53c-113-7-187-39-264-115c-141-140-172-386-75-593
		c26-55,119-146,178-174c68-32,172-50,241-42c68,8,156,40,179,66c26,29,35,25,35-15v-35h115h115v605v605h-115h-115V3126z
		 M13025,2784c75-48,115-126,115-224c0-79-25-146-74-195c-112-111-297-76-365,70c-32,68-30,184,5,253
		C12767,2810,12914,2854,13025,2784z"/>
	<path class="st1" d="M15395,3046c-141-45-249-149-296-287c-30-89-30-228,0-319c58-172,200-285,381-304c145-15,297,39,389,140
		c28,31,51,60,51,65s-43,30-95,56l-95,47l-37-36c-60-57-96-71-174-66c-56,3-75,9-111,35c-24,17-56,52-73,78c-28,45-30,55-30,145
		c0,94,1,99,34,147c89,131,240,151,350,46l44-42l93,50c108,58,108,57,24,139c-49,48-125,90-195,109
		C15601,3064,15445,3062,15395,3046z"/>
	<path class="st1" d="M17402,3038c-29-12-76-41-103-66l-49-44v56v56h-120h-120v-445v-446l118,3l117,3l5,250c5,234,6,253,27,291
		c40,74,130,134,201,134c50,0,52,5,52,121v109l-37-1C17472,3059,17431,3049,17402,3038z"/>
	<path class="st1" d="M17946,3035c-32-13-69-34-82-46l-24-22v36v37h-115h-115v-605v-605h115h115v196v196l33-22c121-81,290-89,426-21
		c67,34,148,117,180,185c104,221,43,504-135,627c-71,49-144,69-248,69C18023,3060,17993,3055,17946,3035z M18168,2834
		c89-44,134-123,134-234c0-149-97-260-225-260c-94,0-170,49-213,136c-24,49-26,63-22,138c3,67,9,92,31,129
		C17936,2849,18060,2888,18168,2834z"/>
	<path class="st1" d="M14071,3000c-164-59-261-213-261-416c0-184,84-323,240-398c59-28,74-31,160-31c109,0,152,12,216,61
		c24,19,47,34,50,34c11,0-7-113-22-142c-35-68-130-105-244-95c-64,5-140,33-155,57c-6,10-245,15-245,5c0-21,56-107,92-141
		c94-89,171-115,343-115c194,0,304,50,381,172c53,85,57,119,62,582l4,427h-106h-106v-46v-45l-57,41c-31,22-79,47-107,55
		C14247,3026,14137,3024,14071,3000z M14323,2816c85-25,140-88,158-179c38-190-122-340-304-285c-53,16-132,93-146,144
		c-28,99-7,195,55,259C14150,2821,14234,2843,14323,2816z"/>
	<path class="st2" d="M16318,2994c-107-25-184-78-255-172c-64-85-86-161-81-280c5-125,30-188,103-269c68-76,138-121,223-145
		c85-23,140-23,225,2c117,33,220,107,272,196s65,173,65,429c0,166-3,234-12,243C16840,3016,16394,3013,16318,2994z M16668,2657
		c2-132,0-152-19-197c-37-86-135-150-229-150c-129,0-250,121-250,250c0,57,30,128,73,172c65,66,106,77,277,75l145-2L16668,2657z"/>
	<path class="st1" d="M13550,2575v-425h105h105v425v425h-105h-105V2575z"/>
	<path class="st1" d="M14770,2575v-425h105h105v425v425h-105h-105V2575z"/>
	<path d="M13840,1814c-11-12-10-18,3-31c8-9,23-13,31-10c21,8,21,43,0,51S13854,1832,13840,1814z"/>
	<path d="M17380,1814c-11-12-10-18,3-31c8-9,23-13,31-10c21,8,21,43,0,51S17394,1832,17380,1814z"/>
	<path d="M13210,1650c0-163,1-170,20-170s20,7,20,170s-1,170-20,170S13210,1813,13210,1650z"/>
	<path d="M16248,1790c-33-29-33-29-8-29c14,0,41,13,60,29l34,30h-27C16291,1820,16267,1808,16248,1790z"/>
	<path d="M12675,1789c-32-18-45-40-45-74c0-48,19-64,106-93c69-24,79-30,82-53c2-15-4-31-13-39c-22-18-104-16-142,4
		c-28,14-32,14-37,0c-9-23-9-24,29-40c69-29,182-11,199,31c12,32,6,82-11,98c-10,8-45,23-78,32s-68,25-79,35c-48,46,32,94,111,67
		c37-13,43-13,48,1c3,8,1,20-5,26C12825,1799,12699,1803,12675,1789z"/>
	<path d="M15530,1640c0-153,1-160,20-160s20,7,20,160s-1,160-20,160S15530,1793,15530,1640z"/>
	<path d="M13660,1745c0-18-5-25-20-25c-11,0-20-7-20-15s9-15,20-15c18,0,20-7,20-85c0-72,3-88,20-105c32-32,121-24,101,9
		c-5,8-17,11-29,7c-37-12-52,18-52,100v74h35c24,0,35,5,35,15s-11,15-35,15c-31,0-35,3-35,25c0,18-5,25-20,25S13660,1763,13660,1745
		z"/>
	<path d="M15220,1745c0-18-5-25-20-25c-11,0-20-7-20-15s9-15,20-15c18,0,20-7,20-85c0-72,3-88,20-105c32-32,121-24,101,9
		c-5,8-17,11-29,7c-37-12-52,18-52,100v74h35c24,0,35,5,35,15s-11,15-35,15c-31,0-35,3-35,25c0,18-5,25-20,25S15220,1763,15220,1745
		z"/>
	<path d="M15980,1745c0-18-5-25-20-25c-11,0-20-7-20-15s9-15,20-15c18,0,20-7,20-85c0-72,3-88,20-105c32-32,121-24,101,9
		c-5,8-17,11-29,7c-37-12-52,18-52,100v74h35c24,0,35,5,35,15s-11,15-35,15c-31,0-35,3-35,25c0,18-5,25-20,25S15980,1763,15980,1745
		z"/>
	<path d="M17200,1745c0-18-5-25-20-25c-11,0-20-7-20-15s9-15,20-15c18,0,20-7,20-85c0-72,3-88,20-105c32-32,121-24,101,9
		c-5,8-17,11-29,7c-37-12-52,18-52,100v74h35c24,0,35,5,35,15s-11,15-35,15c-31,0-35,3-35,25c0,18-5,25-20,25S17200,1763,17200,1745
		z"/>
	<path d="M12952,1704c-49-34-66-109-37-164c29-56,113-77,175-45c69,36,80,144,21,197c-26,23-41,28-84,28
		C12996,1720,12966,1714,12952,1704z M13082,1660c26-27,30-36,25-67c-8-47-35-74-75-75c-92-3-124,118-42,159
		C13029,1697,13049,1693,13082,1660z"/>
	<path d="M13340,1629c0-87,1-92,29-120c23-23,38-29,71-29c22,0,52,7,65,16c23,15,25,15,25,0c0-9,8-16,20-16c19,0,20,7,20,120
		c0,111-1,120-19,120c-16,0-19-10-23-80c-6-99-22-122-82-118c-52,4-66,29-66,126c0,65-2,72-20,72C13341,1720,13340,1713,13340,1629z
		"/>
	<path d="M13840,1600c0-113,1-120,20-120s20,7,20,120s-1,120-20,120S13840,1713,13840,1600z"/>
	<path d="M14002,1704c-49-34-66-109-37-164c29-56,113-77,175-45c69,36,80,144,21,197c-26,23-41,28-84,28
		C14046,1720,14016,1714,14002,1704z M14132,1660c26-27,30-36,25-67c-8-47-35-74-75-75c-92-3-124,118-42,159
		C14079,1697,14099,1693,14132,1660z"/>
	<path d="M14260,1600c0-111,1-120,19-120c16,0,19,10,23,81c5,87,19,112,70,124c21,5,33,1,52-19c24-23,26-33,26-106s2-80,20-80
		c19,0,20,7,20,95s-2,98-25,120c-19,19-35,25-70,25c-26,0-56-5-68-11c-16-9-22-9-25,0c-2,6-12,11-23,11
		C14261,1720,14260,1712,14260,1600z"/>
	<path d="M14572,1700c-48-45-21-100,58-115c62-12,70-16,70-36c0-31-45-43-97-26c-40,13-44,13-53-3c-8-15-4-20,22-29
		c71-25,160-4,171,40c10,40-9,67-55,79c-78,19-93,25-96,43c-5,27,41,43,89,30c34-9,42-8,46,4c9,22-16,33-78,33
		C14607,1720,14589,1715,14572,1700z"/>
	<path d="M14962,1704c-71-49-67-170,8-209c41-21,112-19,141,4c19,15,21,22,12,32c-10,10-15,10-27,0c-38-32-127-7-139,38
		c-5,20-1,21,95,21h101l-6,38c-9,56-54,92-115,92C15005,1720,14975,1713,14962,1704z M15085,1665c40-39,32-45-55-45h-80l11,24
		C14983,1692,15047,1703,15085,1665z"/>
	<path d="M15660,1600c0-111,1-120,19-120c16,0,19,10,23,81c5,87,19,112,70,124c21,5,33,1,52-19c24-23,26-33,26-106s2-80,20-80
		c19,0,20,7,20,95s-2,98-25,120c-19,19-35,25-70,25c-26,0-56-5-68-11c-16-9-22-9-25,0c-2,6-12,11-23,11
		C15661,1720,15660,1712,15660,1600z"/>
	<path d="M16182,1704c-71-49-67-170,8-209c41-21,112-19,141,4c19,15,21,22,12,32c-10,10-15,10-27,0c-38-32-127-7-139,38
		c-5,20-1,21,95,21h101l-6,38c-9,56-54,92-115,92C16225,1720,16195,1713,16182,1704z M16305,1665c40-39,32-45-55-45h-80l11,24
		C16203,1692,16267,1703,16305,1665z"/>
	<path d="M16454,1686c-96-96,25-244,146-181c29,15,30,15,30-10c0-57-85-86-151-51c-23,12-27,11-37-4c-9-15-6-21,22-34
		c67-31,171-14,196,33c5,11,10,78,10,150c0,124-1,131-20,131c-11,0-20-7-20-16c0-14-2-14-22,0c-13,9-43,16-71,16
		C16495,1720,16483,1715,16454,1686z M16589,1675c74-38,41-145-44-145c-63,0-103,66-71,116C16502,1688,16544,1699,16589,1675z"/>
	<path d="M16750,1600c0-111,1-120,19-120c16,0,19,10,23,80c5,88,23,120,65,120c16,0,23,6,23,20c0,25-35,27-68,4c-20-14-22-14-22,0
		c0,9-9,16-20,16C16751,1720,16750,1713,16750,1600z"/>
	<path d="M16933,1707c-14-8-19-17-14-25c6-10,17-10,53-1c40,11,49,10,72-4c14-10,26-26,26-36c0-16-10-19-65-23c-70-4-89-16-100-60
		c-10-41,31-78,85-78c23,0,50,5,61,10c13,7,19,7,19,0c0-5,9-10,20-10c19,0,20,7,20,99c0,96-1,100-26,120
		C17053,1723,16970,1727,16933,1707z M17070,1566c0-29-34-56-70-56c-30,0-50,16-50,40c0,28,22,40,72,40
		C17066,1590,17070,1588,17070,1566z"/>
	<path d="M17380,1600c0-113,1-120,20-120s20,7,20,120s-1,120-20,120S17380,1713,17380,1600z"/>
	<path d="M17542,1704c-49-34-66-109-37-164c29-56,113-77,175-45c69,36,80,144,21,197c-26,23-41,28-84,28
		C17586,1720,17556,1714,17542,1704z M17672,1660c26-27,30-36,25-67c-8-47-35-74-75-75c-92-3-124,118-42,159
		C17619,1697,17639,1693,17672,1660z"/>
	<path d="M17800,1600c0-111,1-120,19-120c16,0,19,10,23,81c5,87,19,112,70,124c21,5,33,1,52-19c24-23,26-33,26-106s2-80,20-80
		c19,0,20,7,20,95s-2,98-25,120c-19,19-35,25-70,25c-26,0-56-5-68-11c-16-9-22-9-25,0c-2,6-12,11-23,11
		C17801,1720,17800,1712,17800,1600z"/>
	<path d="M18112,1700c-48-45-21-100,58-115c62-12,70-16,70-36c0-31-45-43-97-26c-40,13-44,13-53-3c-8-15-4-20,22-29
		c71-25,160-4,171,40c10,40-9,67-55,79c-78,19-93,25-96,43c-5,27,41,43,89,30c34-9,42-8,46,4c9,22-16,33-78,33
		C18147,1720,18129,1715,18112,1700z"/>
	<path class="st1" d="M2,558l3-43l12398-3l12397-2v45v45H12399H-1L2,558z"/>
</g>
<path class="st1" d="M1048.3,273.8c0,3.3,0.1,6.7,0,10c-0.3,9.3-4.8,16.3-13.2,20.3c-8.4,4.1-16.8,3.2-24.3-2.3
	c-8.4-6.2-11.6-16.5-8.3-26c3.3-9.6,12.2-16,22.6-16c6.9,0,13.8,0,20.7,0c2,0,2.7,0.6,2.7,2.6C1048.3,266.2,1048.4,270,1048.3,273.8
	L1048.3,273.8z"/>
<path class="st0" d="M594.4,509.3l0.2,5.6l691.5,0.4l691.5,0.3v-5.9v-5.9h-691.7H594.2L594.4,509.3z"/>
</svg>
