<?xml version="1.0" encoding="UTF-8"?>
<svg id="Calque_1" data-name="Calque 1" xmlns="http://www.w3.org/2000/svg" viewBox="0 0 595.28 401.86">
  <path d="M326.34,208.12c0,5.65,.16,11.3-.03,16.94-.53,15.83-8.14,27.51-22.15,34.37-14.08,6.89-28.09,5.44-40.72-3.9-14.06-10.4-19.37-27.96-13.94-43.9,5.54-16.28,20.41-27.01,37.78-27.13,11.55-.08,23.11,.07,34.66-.07,3.33-.04,4.58,1.04,4.47,4.44-.2,6.41-.06,12.83-.06,19.25Z" style="fill: #fbf5f4;"/>
  <path d="M361.69,143.83c5.42,0,9.81-4.39,9.81-9.81V13.7h-50.01v60.35c-10.3,.03-20.61,.37-30.91,.11-37.88-.99-71.48,10.51-99.93,34.92-40.44,34.7-57.98,79.02-52.59,131.41,3.63,35.27,19.83,68.31,45.9,92.34,33.96,31.3,73.4,44.49,117.3,40.4,31.34-2.92,61.19-15.71,84.79-36.52,28.04-24.73,44.51-55.75,49.74-92.68,0-.02,0-.03,0-.05,.36-2.58-1.7-4.87-4.3-4.87h-17.98c-24.02,0-47.04,11.19-60.71,30.94-16.15,23.35-44.22,37.75-75.94,33.72-44.97-5.72-75.24-45.7-69.55-90.49,4.83-37.98,41.27-69.06,79.56-69.47,11.54-.12,23.07-.09,34.61,.02h0s40.2,.01,40.2,.01Z" style="fill: #fbf5f4;"/>
</svg>